<?xml version="1.0" encoding="UTF-8"?> <svg xmlns="http://www.w3.org/2000/svg" xmlns:xlink="http://www.w3.org/1999/xlink" width="1000px" height="272px" viewBox="0 0 1000 272" version="1.1"><title>Artboard</title><g id="Artboard" stroke="none" stroke-width="1" fill="none" fill-rule="evenodd"><g id="wilton-logo-horizontal" fill-rule="nonzero"><g id="Wilton-Academy-of-Music" transform="translate(320.000000, 1.000000)"><g id="Line-2" transform="translate(157.760000, 130.000000)"><path d="M71.0308411,33.7412297 C71.0308411,19.9499394 65.8935966,13.0630841 55.628482,13.0630841 C48.1616662,13.0630841 41.0276462,16.1439301 34.1982984,22.3188067 C27.443947,28.4936832 22.0957756,36.2331549 18.1584715,45.5372217 C14.2867892,54.8456832 12.350948,64.1497502 12.350948,73.4538166 C12.350948,80.1385054 13.5836991,85.548664 16.0445142,89.6930829 C18.5053293,93.8375019 22.4098225,95.9119092 27.7626812,95.9119092 C33.1811616,95.9119092 38.599642,93.964955 44.0181224,90.0754422 C49.4366028,86.1815338 54.0769969,81.2328427 57.948679,75.2293685 C61.8203618,69.1379953 64.9514561,62.4137529 67.3466489,55.0566402 C69.8027768,47.6116286 71.0308411,40.5050268 71.0308411,33.7412297 M75.4649954,58.6077435 C70.8199138,71.300301 64.1733696,81.5756473 55.5159877,89.4425718 C46.9336023,97.225993 37.1512766,101.111111 26.1736977,101.111111 C8.71831623,101.111111 0,91.8553886 0,73.3307586 C0,64.9540223 1.43899091,56.7530828 4.32634724,48.7103611 C7.27932531,40.5929255 11.1510077,33.5258781 15.9367071,27.5224037 C20.7224064,21.4310308 26.3846247,16.5262889 32.9280491,12.8037833 C39.4714736,9.08127762 46.155516,7.2222222 52.9848638,7.2222222 C61.9187943,7.2222222 68.6028369,9.88115483 73.0369912,15.2122049 C77.5414543,20.4553564 79.7866669,27.0521462 79.7866669,35.0025745 C79.7913425,42.8738941 78.3570387,50.7408188 75.4649954,58.6077435" id="Shape" fill="#131415"></path><path d="M83.807193,56.340004 C78.4070584,68.8569727 75.4192401,75.1154571 74.848533,75.1154571 C74.488844,75.1154571 74.3066012,74.4150165 74.3066012,73.0141349 C74.3066012,71.5268352 74.5224148,70.2578543 74.9540418,69.2071933 C78.4837923,61.8525646 81.1502888,54.8527043 82.9487348,48.1985165 C83.2412817,47.0614373 83.5578087,46.3155132 83.9222936,45.9652929 C84.2819831,45.5286544 84.8910564,45.3057869 85.7543109,45.3057869 L86.617565,45.3057869 L96.1229526,46.2245469 C96.5545796,44.9100833 97.2739581,42.5085718 98.2810882,39.0018193 C99.3649516,35.4996151 100.185043,32.8343013 100.765342,30.9922329 C101.34564,29.1501644 102.21369,26.6576866 103.3599,23.5057029 C104.510905,20.3582674 105.556402,17.8612413 106.491594,16.0191729 C107.426786,14.1771044 108.64973,12.1258134 110.160425,9.84710659 C111.675915,7.48652997 113.18661,5.6899447 114.697305,4.46644741 C118.370931,1.4872997 122.327513,0 126.576642,0 C134.067769,0 137.813333,3.37030299 137.813333,10.1154573 C137.813333,12.6534182 137.199464,14.9275768 135.971725,16.9424813 C134.825515,18.9528375 133.276453,19.9625638 131.329335,19.9625638 C130.398939,19.9625638 129.56446,19.6578266 128.845082,19.0438038 C128.197641,18.429781 127.871523,17.7293401 127.871523,16.9424813 C127.871523,16.0692044 128.413454,14.7092576 129.492522,12.8671891 C130.57159,10.943251 131.113522,9.32859839 131.113522,8.01413475 C131.113522,6.60870475 130.643528,5.47162552 129.708336,4.59834861 C128.845082,3.72507172 127.804381,3.28843328 126.576642,3.28843328 C124.423302,3.28843328 122.26037,4.68931496 120.097439,7.49107829 C117.939304,10.2882933 115.958615,13.9678819 114.160169,18.5207473 C110.990108,26.4848506 108.146165,34.9765587 105.633136,43.9913232 C105.556402,44.43251 105.489261,44.7372472 105.417323,44.9100833 C105.196713,45.6105241 105.019266,46.2245469 104.875391,46.7521517 C116.251163,46.7521517 122.730365,46.1381289 124.312997,44.9100833 C123.377805,47.7118466 121.363546,49.5539151 118.265422,50.4271919 C115.167299,51.3004688 110.198792,51.8326219 103.364696,52.005458 L100.237797,63.0351269 C95.7680589,78.6176614 92.3150423,89.3425932 89.8691558,95.2053738 C87.4184728,100.986285 85.0828909,105.975789 82.848022,110.173886 C80.6898864,114.376531 78.5317508,117.833252 76.3640239,120.544049 C71.4674544,126.852565 66.393438,130 61.1371794,130 C57.6122248,130 55.0176663,128.990274 53.3630959,126.979917 C51.6365875,124.969561 50.7733333,122.695403 50.7733333,120.148345 C50.7733333,117.701351 51.2385314,115.645511 52.1737234,113.985375 C53.1089154,112.320691 54.1544122,111.488349 55.3054178,111.488349 C56.4564234,111.488349 57.3244733,111.788538 57.8999763,112.402561 C58.4754788,113.103002 58.7632303,113.807991 58.7632303,114.508432 C58.7632303,115.29529 58.4035408,116.477853 57.6841628,118.051571 C56.8928463,119.711707 56.49479,121.112588 56.49479,122.249668 C56.49479,123.391295 56.7441749,124.355539 57.2525353,125.142397 C57.7513044,125.933805 58.6481297,126.32496 59.9478067,126.32496 C61.2474841,126.32496 62.79175,125.538101 64.5949919,123.959835 C66.3215,122.472535 68.0144378,120.280246 69.6738037,117.396613 C75.8652548,106.280526 84.0373942,84.5213769 94.1854264,52.1328109 L91.1592409,52.1328109 C87.4856149,52.1328109 85.0349324,53.5382409 83.807193,56.340004" id="Shape" fill="#000000"></path><path d="M240.25471,7.2222222 L246.613333,7.2222222 C243.53423,10.3225657 238.888244,19.8811915 232.666267,35.9072995 C223.43351,59.9832605 218.819409,77.2927453 218.819409,87.831153 C218.819409,92.6978645 220.012789,95.1312202 222.40866,95.1312202 C223.501833,95.1312202 224.836415,94.5562307 226.407851,93.4062518 L226.512614,93.4062518 C226.717584,93.4062518 226.813236,93.6270476 226.813236,94.0732395 C226.813236,95.752209 225.068715,97.3483799 221.58878,98.8525525 C218.168059,100.356725 215.366804,101.111111 213.171348,101.111111 C208.589131,101.111111 206.302577,97.87737 206.302577,91.4144877 C206.302577,80.1768928 213.27611,57.4625068 227.223176,23.2897294 C224.490244,26.656868 222.640959,29.0442245 221.684433,30.4609987 C215.125395,39.936826 205.341496,55.6087404 192.355511,77.4767419 C189.618023,81.9846598 187.736855,84.8228079 186.71656,85.9727868 C185.687156,87.1273661 184.320689,87.7023555 182.612606,87.7023555 C180.977402,87.7023555 179.059793,87.0353678 176.868893,85.710592 C178.576975,82.8770432 179.433295,74.289 179.433295,59.9418614 C179.433295,45.5119244 178.750062,32.4159631 177.37904,20.6355778 C174.919401,26.5648697 170.469276,39.7574293 164.042329,60.2132565 C157.619937,80.659884 154.404186,93.4936497 154.404186,98.7237545 C154.404186,99.3447433 154.440626,99.740336 154.504394,99.9197328 L145.066667,99.9197328 C148.96565,86.9893684 154.536278,69.9466793 161.792214,48.7916646 C169.039041,27.6320503 173.448172,15.0604794 175.015053,11.076952 C168.793077,11.076952 162.707747,12.6777228 156.759063,15.8562649 C150.878704,19.0440067 147.426099,22.765339 146.405804,27.0156615 C146.332925,27.2824566 146.196279,27.4112543 145.991309,27.4112543 C145.444722,27.4112543 145.171429,26.8362648 145.171429,25.6862857 C145.171429,25.5114889 145.444722,24.3155107 145.991309,22.102951 C146.537895,19.8903914 147.5673,17.5904333 149.070413,15.1984769 C150.646404,12.8019205 152.454694,11.0401527 154.504394,9.8855737 C157.852236,8.11460596 161.997184,7.23142203 166.921018,7.23142203 L179.938887,7.23142203 C181.993142,7.23142203 183.605572,7.673014 184.767068,8.56079781 C185.996887,9.44398173 186.853206,11.569143 187.326915,14.9316817 C187.805178,18.211422 188.247002,25.8656824 188.656942,37.908263 C189.13976,49.8634451 189.376614,58.2674918 189.376614,63.138803 C189.376614,68.0101143 189.308291,71.3266537 189.171644,73.0976215 C198.946434,57.2509107 211.599912,37.3700728 227.122969,13.4735083 C229.860457,9.30138435 234.233149,7.2222222 240.25471,7.2222222" id="Shape" fill="#000000"></path><path d="M258.37353,43.3333333 L262.510456,43.4574853 C263.375345,43.4574853 263.918771,43.4146743 264.148388,43.3333333 C262.537245,44.9002174 260.21429,50.3800303 257.17187,59.772772 C254.183027,69.0798918 252.686692,75.7969442 252.686692,79.9153658 C252.686692,82.3898438 253.260734,83.6228017 254.408817,83.6228017 C255.155071,83.6228017 256.161557,82.9249818 257.424449,81.525061 C258.752398,80.120859 259.869865,78.5967861 260.788331,76.9528419 C261.706798,75.2232758 262.682668,73.1212538 263.71977,70.6467759 C264.810449,68.1765793 265.728915,66.0317461 266.478996,64.220839 C267.282654,62.4056512 267.741888,61.5023381 267.856696,61.5023381 C268.201121,61.5023381 268.373333,62.2857804 268.373333,63.8483831 C268.373333,65.4152671 268.059524,66.8965288 267.424251,68.3007309 C260.30231,85.3566491 254.35524,93.8846079 249.586868,93.8846079 C246.368409,93.8846079 244.761093,90.4640057 244.761093,83.627083 C244.761093,81.4865312 244.875901,79.4273198 245.105517,77.44945 C239.705701,88.413357 234.562289,93.8888887 229.679109,93.8888887 C228.244005,93.8888887 227.065307,93.024106 226.14684,91.2945399 C225.285778,89.5649739 224.853333,87.0091549 224.853333,83.6313638 C224.853333,80.2535733 225.687607,74.6924192 227.352327,66.9479021 C229.020875,59.1263254 231.060635,52.6918264 233.47161,47.6658105 C234.045651,46.4328525 234.650309,45.6922216 235.281754,45.4439175 C235.974431,45.1142726 237.237322,44.9473095 239.074255,44.9473095 L243.211181,44.9473095 C241.77225,47.7514325 240.222338,51.5402094 238.557617,56.3179213 C234.765117,67.6071923 232.87078,75.8868473 232.87078,81.1611672 C232.87078,84.290654 233.643822,85.857538 235.197561,85.857538 C236.804878,85.857538 238.699215,83.674175 240.880572,79.3117303 C243.06193,74.940723 245.392538,69.3025093 247.860917,62.3799643 C250.386699,55.3760783 251.852419,51.4160574 252.254248,50.5127445 C254.382029,45.7221893 256.421789,43.3333333 258.37353,43.3333333" id="Shape" fill="#000000"></path><path d="M310.90427,68.0881224 C305.912106,77.7303475 301.389896,84.4390278 297.328775,88.2181706 C293.267653,91.9973134 288.005043,93.8888887 281.549811,93.8888887 C277.821204,93.8888887 274.691126,93.0793587 272.164009,91.4602986 C269.641325,89.761087 268.373333,87.2924206 268.373333,84.0543004 C268.373333,82.2028009 268.834422,80.5075965 269.774332,78.9646807 C270.705375,77.4177565 271.9645,76.6483023 273.560574,76.6483023 C275.227584,76.6483023 276.291633,77.3456201 276.757155,78.7322413 C275.493596,80.1990134 274.859601,81.8942177 274.859601,83.8258688 C274.859601,87.6811558 276.721687,89.608799 280.450293,89.608799 C282.644895,89.608799 284.542449,88.7191175 286.142957,86.9477695 C287.805534,85.1764214 288.634606,83.2447704 288.634606,81.1648392 C288.634606,79.0047565 288.231153,77.1131812 287.433116,75.4981283 C286.635079,73.8750605 285.673002,72.4483641 284.538016,71.2140309 C283.407463,69.9837055 282.276911,68.7493723 281.146358,67.5150396 C278.415298,64.5053505 277.049769,61.0748667 277.049769,57.2155724 C277.049769,53.288149 278.317761,50.0059453 280.844878,47.3809838 C283.442932,44.683886 286.967595,43.3333333 291.427735,43.3333333 C294.225298,43.3333333 296.58394,43.9144317 298.516963,45.0726208 C300.449986,46.2268023 301.412064,48.0382261 301.412064,50.5068922 C301.412064,52.8954067 300.773634,54.9793454 299.514509,56.7587085 C298.250951,58.5260493 296.513004,59.4157308 294.318402,59.4157308 C292.194737,59.4157308 291.121821,58.2615491 291.121821,55.9491785 C291.121821,55.4041486 291.888823,54.5986258 293.422827,53.5165808 C294.956832,52.4385432 295.7194,51.3204298 295.7194,50.1622407 C295.7194,49.0080592 295.289347,48.1584534 294.424807,47.6174307 C293.622336,47.0002642 292.46075,46.691681 290.926745,46.691681 C289.397174,46.691681 287.898638,47.3088475 286.43557,48.5431805 C285.039005,49.7815211 284.334073,51.3965737 284.334073,53.4043687 C284.334073,55.4081558 285.065606,57.3037389 286.533108,59.0710792 C287.996176,60.846435 289.59225,62.3492756 291.325763,63.5836088 C293.059277,64.8219493 294.650918,66.5532216 296.113985,68.7934558 C297.581486,70.9535385 298.313021,73.2619014 298.313021,75.7305678 C298.313021,78.12309 297.812031,80.2831727 296.814484,82.2108159 C295.883441,84.1384597 294.752889,85.6813755 293.418394,86.839565 C297.146999,84.9880655 301.101716,80.3593164 305.300277,72.9533182 C305.699296,72.3401597 306.399795,71.0617429 307.397341,69.1381075 C309.724949,64.2769189 311.023976,61.8483288 311.289988,61.8483288 C311.689007,61.8483288 311.893333,62.5817151 311.893333,64.0484872 C311.90625,65.4311006 311.573735,66.7816533 310.90427,68.0881224" id="Shape" fill="#000000"></path><path d="M326.679316,40.2177588 L331.266804,40.3505402 L332.192457,40.3505402 C331.209716,41.4036335 329.896674,44.2653001 328.241101,48.9401187 C326.646694,53.6103587 325.451909,57.1359322 324.660822,59.5168389 C323.865657,61.897745 322.944082,65.111969 321.904251,69.164089 C320.925587,73.2162091 320.436255,76.517428 320.436255,79.0769021 C320.436255,81.6317986 321.019376,82.9092463 322.181539,82.9092463 C322.976704,82.9092463 324.081779,82.1629239 325.488609,80.6656998 C326.956604,79.0769021 328.15139,77.4468971 329.068888,75.7756838 C329.990463,74.0128973 330.997671,71.8105586 332.098669,69.1686678 C333.260832,66.5267774 334.243574,64.2328651 335.042816,62.2960894 C335.899147,60.3501557 336.38848,59.3840574 336.506734,59.3840574 C336.873734,59.3840574 337.057233,60.2265322 337.057233,61.897745 C337.057233,63.4865427 336.755478,65.0295533 336.139736,66.5267774 C333.872497,71.9845479 331.796914,76.5677933 329.896674,80.2719342 C328.06168,83.8845025 325.945318,87.0529395 323.559824,89.7909821 C321.170253,92.5198674 318.996804,93.8888887 317.039475,93.8888887 C313.605995,93.8888887 311.893333,90.4503102 311.893333,83.5777318 C311.893333,72.914017 314.433782,61.105636 319.51468,48.1571667 C321.659585,42.8596495 324.045079,40.2177588 326.679316,40.2177588 M339.161361,22.7684603 L338.794362,22.7684603 C337.571032,22.7684603 336.376246,23.5193617 335.214083,25.0165856 C334.109008,26.5138096 333.313843,28.0568203 332.824511,29.6456176 C331.230104,28.7665136 330.439017,27.1777163 330.439017,24.888383 C330.439017,22.594471 331.173016,20.3051377 332.64509,18.0158044 C334.109008,15.6303191 335.519915,14.4444445 336.865578,14.4444445 C338.207164,14.4444445 339.222528,14.8839965 339.895359,15.7676791 C340.568191,16.6422044 340.906666,17.7914498 340.906666,19.201679 C340.910723,20.5203351 340.33168,21.7107883 339.161361,22.7684603" id="Shape" fill="#000000"></path><path d="M362.127208,60.9348556 C362.484203,60.9348556 362.666667,61.7202934 362.666667,63.2911679 C362.666667,64.8577508 362.162908,66.797738 361.14349,69.1068381 C360.195472,71.4202298 359.418017,73.1971213 358.823027,74.4375114 C358.287535,75.5963531 357.33555,77.4934203 355.963105,80.137297 C354.594626,82.7811736 353.404645,84.6782408 352.39316,85.837083 C351.37771,86.9916331 350.10443,88.3564912 348.54952,89.923074 C345.931562,92.5669507 342.512348,93.8888887 338.279981,93.8888887 C334.11108,93.8888887 331.07266,92.4424822 329.16869,89.5539613 C327.324219,86.5796003 326.4,82.7382535 326.4,78.0256295 C326.4,69.3514824 328.601466,61.4198525 333.008363,54.235032 C337.47476,46.9686636 342.714645,43.3333333 348.728018,43.3333333 C351.409443,43.3333333 353.551409,44.3204951 355.161851,46.3034025 C356.768326,48.2004697 357.573546,50.5138618 357.573546,53.2435785 C357.573546,55.8831628 357.038054,58.1965551 355.963105,60.1794624 C354.892121,62.1666619 353.670407,63.1538234 352.301928,63.1538234 C349.62447,63.1538234 348.283758,61.6301611 348.283758,58.5656679 C348.283758,57.582798 349.025513,56.6299722 350.51299,55.720067 C351.107981,55.3938743 351.643472,54.7672412 352.119465,53.8573356 C352.595457,52.951722 352.833453,51.7542519 352.833453,50.2649253 C352.833453,48.1189216 352.000466,47.0459198 350.334493,47.0459198 C346.760582,47.0459198 343.218404,50.63833 339.703992,57.8231507 C336.185614,65.0122628 334.432374,71.995359 334.432374,78.7638545 C334.432374,85.4593865 336.546575,88.8071519 340.774975,88.8071519 C346.66935,88.8071519 352.420927,82.4807333 358.013839,69.8493553 C359.144322,67.3685751 360.072507,65.2611993 360.782529,63.5229362 C361.559984,61.8018413 362.00821,60.9348556 362.127208,60.9348556" id="Shape" fill="#000000"></path></g><g id="Line-1" transform="translate(0.000000, 0.000000)" fill="#131415"><path d="M119.68,19.3560643 L119.68,21.5443082 C119.68,30.7519837 117.452898,41.2337665 112.998693,52.9991296 C108.549351,64.7550199 103.073987,75.1041818 96.5774613,84.0371426 C93.0714776,88.7783379 88.9479342,92.8801109 84.20197,96.3424621 C79.5289452,99.8095497 74.7878432,101.543094 69.9689389,101.543094 C60.9146497,101.543094 56.3923679,93.0695691 56.3923679,76.1130473 C56.3923679,69.908287 57.0488285,62.713606 58.3617485,54.5053237 C52.4487437,69.093616 46.7885975,80.3048133 41.3910353,88.1483888 C34.5249472,97.9954863 27.337923,102.916667 19.8153746,102.916667 C16.3871932,102.916667 13.5425321,101.32048 11.2765285,98.1281069 C9.08832762,94.9357338 7.99422721,89.8298315 7.99422721,82.8151366 C7.99422721,73.6074609 10.5811669,62.2589061 15.7647717,48.7694721 C21.0213164,35.1853089 27.2649829,24.3909197 34.4909085,16.3626225 C35.803829,14.8138005 37.447411,13.5823213 39.4167918,12.6681848 C36.6450707,13.3975994 32.3756477,14.1743786 26.6085227,14.993786 C20.8413977,15.7232006 17.0096148,16.3626225 15.1083114,16.9073152 C7.29886557,19.0955591 3.39414269,24.9261396 3.39414269,34.4132661 C1.12813912,31.4956077 0,28.3505991 0,24.9782406 C0,12.9428993 9.26824637,6.92286048 27.8096018,6.92286048 L50.2605428,6.92286048 C50.4064229,6.92286048 50.4793629,7.10284591 50.4793629,7.46755322 C50.4793629,7.74226781 50.0028214,8.51904706 49.054601,9.79315442 C48.1793207,11.0719982 47.338079,12.0287629 46.5357387,12.6587119 C43.3944548,15.0316776 39.781492,19.9528581 35.6968503,27.4269897 C31.607346,34.9011213 27.8825418,43.7914541 24.5273005,54.0932516 C21.1671965,64.30032 19.4895758,73.4653671 19.4895758,81.5836575 C19.4895758,89.6924741 21.7896181,93.7468827 26.3897026,93.7468827 C31.5684447,93.7468827 39.6745132,83.5350783 50.698183,63.1162052 C52.9593239,58.8344467 55.5511263,52.4497004 58.4687272,43.9714396 C61.3911915,35.403186 63.4335122,29.7525909 64.6005527,27.0196543 C65.7724555,24.1919885 67.8488153,21.3643227 70.8442191,18.5413934 C73.9077002,15.6237349 76.6842844,14.1649057 79.1642449,14.1649057 C81.7220089,14.1649057 82.996028,14.6196057 82.996028,15.5337422 C79.1302063,22.0937374 75.4783424,30.9840701 72.0501611,42.1952676 C68.6171169,53.4064651 66.900595,64.1203344 66.900595,74.3274025 C66.900595,86.8174439 69.8570974,93.2921828 75.7701021,93.7468827 C79.5678467,93.7468827 83.2877883,91.4733825 86.9396521,86.9121733 C90.6644566,82.3509635 93.7668391,77.1124402 96.2468002,71.1871306 C98.8045636,65.1670917 101.172683,58.4271112 103.365747,50.9529795 C107.085688,38.4629382 108.94809,28.5305846 108.94809,21.1417092 C108.94809,13.7575702 107.012748,10.067869 103.146927,10.067869 C101.979886,10.067869 100.662103,10.3852117 99.2033025,11.0246336 C99.3491827,9.38581898 100.224463,8.05961054 101.834006,7.06021778 C103.511627,5.96609585 105.665789,5.41666667 108.29163,5.41666667 C110.995274,5.41666667 113.509274,6.60551775 115.848217,8.97374709 C118.182298,11.2425107 119.456317,14.704862 119.68,19.3560643" id="Shape"></path><path d="M125.431906,44.366343 L130.592108,44.5111953 L131.628735,44.5111953 C130.523305,45.6600244 129.046341,48.7818425 127.184081,53.8816446 C125.395211,58.9764516 124.051265,62.822532 123.15683,65.4198843 C122.262395,68.0172372 121.230354,71.5236632 120.060708,75.9441578 C118.955278,80.3646523 118.404857,83.9659817 118.404857,86.7581357 C118.404857,89.5452951 119.060776,90.9388745 120.368027,90.9388745 C121.262462,90.9388745 122.505497,90.1247046 124.08796,88.4913694 C125.739224,86.7581357 127.08317,84.9799481 128.115211,83.1568064 C129.147251,81.2337668 130.284789,78.8312151 131.523238,75.949153 C132.830489,73.0670904 133.935919,70.5646408 134.830354,68.4517941 C135.793592,66.328958 136.344014,65.2750323 136.481619,65.2750323 C136.894435,65.2750323 137.100843,66.1940955 137.100843,68.0172372 C137.100843,69.7504708 136.75683,71.4337552 136.068803,73.0670904 C133.518516,79.0210216 131.179224,84.0209256 129.046341,88.0618072 C126.977673,92.0027902 124.601687,95.4592676 121.918381,98.4462229 C119.230489,101.423189 116.790287,102.916667 114.584014,102.916667 C110.726475,102.916667 108.8,99.1654901 108.8,91.6681318 C108.8,80.0349886 111.657605,67.153118 117.372816,53.0275152 C119.785497,47.2484055 122.468803,44.366343 125.431906,44.366343 M139.47683,25.3307446 L139.064014,25.3307446 C137.68796,25.3307446 136.344014,26.1499097 135.036762,27.7832449 C133.793727,29.4165802 132.899292,31.0998646 132.34887,32.833098 C130.56,31.8740755 129.665565,30.140842 129.665565,27.6433875 C129.665565,25.1409381 130.491197,22.6434836 132.142462,20.146029 C133.793727,17.5436815 135.380776,16.25 136.894435,16.25 C138.408094,16.25 139.545633,16.7295113 140.302462,17.6935287 C141.059292,18.6475564 141.44,19.9012785 141.44,21.4397105 C141.44,22.8782443 140.784081,24.1769206 139.47683,25.3307446" id="Shape"></path><path d="M164.522457,3.24684772 L163.870132,3.24684772 C160.064209,3.24684772 153.981381,19.107316 145.621647,50.8282527 C154.168354,36.8726617 160.001885,25.4298878 163.118088,16.5089373 C164.867317,11.0464875 165.739854,7.49341829 165.739854,5.84972982 C165.739854,4.12047943 165.33267,3.24684772 164.522457,3.24684772 M166.487742,17.4230982 C164.244076,23.7456699 160.812098,30.9418734 156.195963,39.0027019 C151.579828,46.9779687 147.4332,53.3861023 143.751926,58.2406126 L142.256149,64.2209365 C141.508259,67.2561316 140.789455,70.9397948 140.103891,75.2719273 C139.418326,79.6040597 139.106706,82.6797839 139.16903,84.5036026 C139.16903,87.1019814 139.854595,88.4034223 141.225724,88.4034223 C142.596853,88.4034223 144.221434,87.3181378 146.091155,85.1520713 C148.023201,82.9860054 149.42757,81.1171541 150.300107,79.5635306 C151.176799,77.9153386 152.173984,75.7898017 153.295817,73.191423 C154.479974,70.5930442 155.477159,68.3369126 156.291526,66.4320356 C157.164063,64.5226546 157.662656,63.5724678 157.787304,63.5724678 C158.161248,63.5724678 158.348221,64.3920604 158.348221,66.0402524 C158.348221,67.6028822 158.0366,69.115976 157.413359,70.5930442 C153.981381,78.6493695 151.205883,84.3279759 149.086865,87.6198559 C144.78235,94.20812 140.353187,97.5 135.799376,97.5 C132.305074,97.5 130.56,94.20812 130.56,87.6198559 C130.56,81.121657 132.649933,69.7689482 136.8298,53.5617293 C137.141421,52.1747263 137.85607,49.2701261 138.982058,44.8479285 C140.103891,40.4302342 141.071991,37.0077595 141.882204,34.5805043 C142.692417,32.0676874 143.785166,28.7713039 145.156295,24.7003603 C146.527424,20.6294167 147.836229,17.3735624 149.086865,14.9508106 C150.395671,12.5280587 151.829124,10.0512679 153.387225,7.53845089 C156.445259,2.51281696 159.752589,0 163.305061,0 C166.861687,0 168.64,2.2516281 168.64,6.75938754 C168.64,10.2268948 167.921196,13.779964 166.487742,17.4230982" id="Shape"></path><path d="M184.96,16.25 C181.496471,19.6407634 177.614118,28.3250579 173.303529,42.2925142 L184.004706,42.2925142 L184.112941,42.4428691 C184.112941,42.9405959 183.722353,43.8427255 182.945882,45.1388889 C182.169412,46.3365438 181.496471,46.9379636 180.931765,46.9379636 L171.821177,46.9379636 C166.24,66.4892919 163.449412,79.0620762 163.449412,84.6511326 C163.449412,88.446299 164.296471,90.3386976 165.990588,90.3386976 C168.465882,90.3386976 171.36,87.352337 174.682353,81.3640625 C175.458823,80.0678992 176.484706,77.8747905 177.755294,74.774368 C181.002353,67.3914215 182.701177,63.699948 182.842353,63.699948 C183.265882,63.699948 183.477647,64.4931999 183.477647,66.0900733 C183.407059,69.8852397 180.475294,77.2681861 174.682353,88.2440975 C172.771765,91.8318776 170.48,95.181164 167.792941,98.2712174 C165.110588,101.366455 162.672941,102.916667 160.48,102.916667 C156.45647,102.916667 154.442353,98.9192988 154.442353,90.9401171 C154.442353,84.2519145 155.571765,76.5734428 157.830588,67.894333 L157.830588,67.7439777 C156.489412,71.238434 155.322353,73.8307608 154.334118,75.5261428 C153.416471,77.2215242 152.889412,78.0718077 152.748235,78.0718077 C152.461177,78.0718077 152.32,77.4755724 152.32,76.2727328 C152.32,74.9713846 152.781177,72.9286312 153.698823,70.134103 C154.687059,67.3395748 155.995294,63.699948 157.618823,59.2048535 C159.317647,54.7201287 160.691765,50.6294369 161.755294,46.9379636 L154.654117,46.9379636 C154.442353,46.9379636 154.334118,46.7409468 154.334118,46.3417285 C154.334118,45.8388171 154.58353,45.0455651 155.077647,43.9464186 C155.642353,42.8472721 156.065882,42.2976988 156.348235,42.2976988 L164.404706,42.2976988 C169.487059,25.0379875 174.644706,16.4055396 179.872941,16.4055396 C182.912941,16.400355 184.607059,16.3536931 184.96,16.25" id="Shape"></path><path d="M212.709673,56.2499654 C212.474937,51.6384971 211.062611,49.337284 208.48443,49.337284 C204.427415,49.337284 200.464293,55.1694352 196.591154,66.8246946 C194.470708,73.267187 193.41831,79.0948167 193.41831,84.312105 C193.41831,89.5339147 194.944092,92.2781903 197.999568,92.5358904 C200.522977,92.5358904 202.842948,90.5782767 204.959482,86.66305 C207.126875,82.6528809 208.949989,78.262944 210.421,73.4796763 C208.421834,70.9524107 207.420295,67.7741144 207.424207,63.9493086 C207.420295,61.602885 207.834994,59.7311715 208.660482,58.338689 C209.536829,56.9462064 210.710507,56.2499654 212.181517,56.2499654 L212.709673,56.2499654 M227.423689,64.3426398 C227.595829,63.8227195 227.771881,63.5604986 227.951845,63.5604986 C228.300036,63.5604986 228.476088,64.2160502 228.48,65.5181117 C228.476088,69.7000807 227.333707,73.176766 225.045034,75.9617311 C222.811133,78.6607965 220.694599,80.0080683 218.703258,80.0080683 C216.758864,80.0080683 215.088328,79.1852376 213.679914,77.5305342 C211.56338,83.706285 209.036059,88.5799736 206.105775,92.1470799 C203.222438,95.7141862 199.494052,97.5 194.916706,97.5 C191.974685,97.5 189.572556,96.1934171 187.690759,93.5847732 C185.871557,90.8857078 184.96,86.8438919 184.96,81.4457616 C184.96,75.9617311 185.781575,70.3511115 187.428637,64.6093814 C189.130471,58.7772304 191.657792,53.7769524 195.002776,49.5995048 C198.406443,45.4220571 202.193513,43.3333333 206.367897,43.3333333 C213.355196,43.3333333 216.848846,48.8173636 216.852758,59.780903 C216.848846,63.9538299 216.230708,68.3482876 215.002258,72.9597559 C215.878605,74.7907799 217.142265,75.7040315 218.789328,75.7040315 C221.840892,75.7040315 224.720316,71.9108726 227.423689,64.3426398" id="Shape"></path><path d="M276.431514,70.2226763 C273.943914,75.6635349 271.653529,80.2325777 269.569324,83.9252407 C267.547869,87.5266145 265.230591,90.6852337 262.604044,93.4147917 C259.981979,96.1397856 257.592987,97.5 255.437067,97.5 C251.470353,97.5 249.484756,94.6426363 249.484756,88.932474 C249.484756,83.2223112 252.008213,71.7609057 257.055128,54.539128 C257.324057,53.7494733 257.458522,52.9187382 257.458522,52.0377939 C257.458522,50.1937446 256.548643,49.2717199 254.733368,49.2717199 C252.980842,49.2717199 251.232799,50.0157299 249.484756,51.5128788 C247.799463,52.9187382 246.253117,54.9818826 244.841236,57.7023119 C243.429355,60.3405801 242.147457,63.0610094 241.004505,65.8727285 C239.861554,68.5977218 238.785835,71.7609057 237.777348,75.3622794 C236.831613,78.9636526 236.060681,81.9944667 235.455589,84.4501558 C234.917729,86.8236845 234.344013,89.4163086 233.738921,92.223463 C233.201061,94.953021 232.896274,96.4456052 232.829042,96.7057807 L223.04,96.7057807 C223.04,94.8617312 225.998227,84.2721414 231.923645,64.9461394 C234.344013,55.899343 235.554196,49.5729755 235.554196,45.9716019 C235.554196,45.0997865 235.455589,44.4333726 235.253891,43.9951827 L239.489535,43.9951827 C241.847152,43.9951827 243.362123,44.2964383 244.034447,44.9172074 C244.706771,45.533412 245.042933,46.364147 245.042933,47.4231061 C245.042933,48.4729361 244.670914,50.62737 243.931357,53.8772787 C249.583363,46.8479818 255.271227,43.3333333 260.990465,43.3333333 C264.822714,43.3333333 266.741079,45.6155726 266.741079,50.1846156 C266.741079,51.6772001 266.57524,53.1697846 266.239077,54.6623691 C265.902915,56.1595179 265.060269,59.1401227 263.71562,63.6224404 C260.752911,73.4634561 259.273797,80.0545633 259.273797,83.391197 C259.273797,85.499986 259.87889,86.5543802 261.089073,86.5543802 C261.963094,86.5543802 263.177761,85.7601615 264.724107,84.176287 C266.337685,82.5969777 267.650958,80.9720232 268.659445,79.301424 C269.735164,77.5440997 270.882597,75.3942307 272.092781,72.8426871 C273.370197,70.2135476 274.445916,67.9313082 275.319937,65.9914049 C276.193959,64.0606303 276.700443,63.0929607 276.834908,63.0929607 C277.238303,63.0929607 277.44,63.9328251 277.44,65.5988596 C277.44,67.1918628 277.103838,68.7300916 276.431514,70.2226763" id="Shape"></path><path d="M371.52384,24.8631661 C362.772968,34.6986715 353.173092,46.0962022 342.734441,59.0605351 L364.844331,59.0605351 C366.225241,49.9606625 368.455153,38.558355 371.52384,24.8631661 M383.384316,5.41666667 L391.68,5.41666667 C388.145895,9.4674236 384.540188,20.5401295 380.852649,38.6491148 C377.241827,56.6721171 375.441531,70.6013712 375.441531,80.4368765 C375.441531,87.4253873 376.515571,92.2499917 378.663652,94.9154662 C379.584258,96.1096755 380.740131,96.7067801 382.12104,96.7067801 C383.501949,96.7067801 384.959575,96.1096755 386.493919,94.9154662 L387.189488,96.157444 C386.110333,97.9965258 384.192404,99.606319 381.430585,100.982048 C378.663652,102.276571 375.937635,102.916667 373.252534,102.916667 C369.258126,102.916667 366.532109,101.216113 365.074483,97.8102288 C363.616856,94.4091216 362.772968,89.8615738 362.542816,84.1628087 C362.542816,79.4767323 363.038921,73.4101507 364.036244,65.9582863 L337.665992,65.9582863 C326.224904,80.4846445 317.24388,92.3885203 310.717806,101.679466 L299.2,101.679466 C306.416529,93.7738024 317.627466,80.8094695 332.827696,62.7864673 C352.405919,39.432516 365.268833,23.2581492 371.411322,14.2490365 C372.945665,12.0373614 374.096423,10.5231044 374.863595,9.69671175 C375.630767,8.77478241 376.781524,7.85285302 378.320982,6.94047738 C379.932043,5.9230113 381.619821,5.41666667 383.384316,5.41666667 M351.715465,5.41666667 L377.512895,5.41666667 C375.594965,7.7143248 372.255211,9.4674236 367.493631,10.6616326 C362.732052,11.8558416 357.356735,12.8159857 351.367681,13.5516184 C345.378626,14.1964913 341.46605,14.7458274 339.624838,15.2091805 C331.405871,17.5068386 327.298945,23.3919006 327.298945,32.8595896 C324.920712,29.9170586 323.729039,26.7452395 323.729039,23.3441322 C323.729039,11.3924885 333.057847,5.41666667 351.715465,5.41666667" id="Shape"></path><path d="M418.317672,62.1921072 C418.692557,62.1921072 418.88,63.0336476 418.88,64.7167273 C418.88,66.3952087 418.350995,68.4737668 417.284655,70.9478028 C416.284962,73.426437 415.47271,75.3302485 414.847902,76.659238 C414.285574,77.9008544 413.28588,79.9334266 411.844655,82.7661515 C410.407595,85.5988765 409.157979,87.6314487 408.095804,88.8730651 C407.029464,90.1100828 405.688208,91.5724312 404.05954,93.2509126 C401.310383,96.0836375 397.715651,97.5 393.275345,97.5 C388.897519,97.5 385.70683,95.9502787 383.707443,92.8554347 C381.766371,89.6686191 380.8,85.5528906 380.8,80.5036505 C380.8,71.2099218 383.111792,62.711747 387.73954,55.013725 C392.42977,47.2283301 397.932251,43.3333333 404.246983,43.3333333 C407.062787,43.3333333 409.312098,44.3910066 411.003247,46.5155502 C412.69023,48.5481223 413.535804,51.0267567 413.535804,53.9514531 C413.535804,56.7795795 412.973476,59.2582136 411.844655,61.3827576 C410.72,63.5118997 409.43706,64.5695727 408,64.5695727 C405.188362,64.5695727 403.78046,62.9370771 403.78046,59.6536915 C403.78046,58.6006167 404.559388,57.5797322 406.125574,56.6048335 C406.750383,56.2553415 407.31271,55.5839489 407.812557,54.6090502 C408.312405,53.6387498 408.562328,52.3557461 408.562328,50.760039 C408.562328,48.4607493 407.687595,47.3111045 405.938132,47.3111045 C402.185115,47.3111045 398.465421,51.1601154 394.774885,58.8581375 C391.084349,66.5607578 389.239081,74.0426467 389.239081,81.2946062 C389.239081,88.4683903 391.459234,92.055282 395.89954,92.055282 C402.089311,92.055282 408.124962,85.2769759 414.002328,71.7433567 C415.189464,69.0853778 416.16,66.8274755 416.90977,64.9650506 C417.722021,63.1210206 418.19271,62.1921072 418.317672,62.1921072" id="Shape"></path><path d="M464.237324,52.5693564 C463.549703,49.7591889 461.931501,48.3449514 459.387302,48.3449514 C454.844419,48.3449514 450.439059,52.3954372 446.171224,60.500986 C441.907973,68.514998 439.771763,75.696029 439.771763,82.0349248 C439.771763,84.7672865 440.596909,86.1311788 442.251784,86.1311788 C444.039599,86.1311788 446.139136,84.7215178 448.545809,81.902197 C450.957068,78.9959159 453.125366,75.6044922 455.050705,71.7279257 C459.31854,63.1006198 462.380747,56.7159553 464.237324,52.5693564 M472.805083,43.8550908 L477.966825,43.9832418 L478.998257,43.9832418 C476.729107,46.3677651 473.94195,52.3954372 470.636785,62.0845653 C467.336203,71.6913112 465.681328,78.6892692 465.681328,83.0921699 C465.681328,85.385157 466.300187,86.5293623 467.542489,86.5293623 C471.530692,86.5293623 476.623673,78.9959159 482.816847,63.9336008 C483.091895,63.3157303 483.334855,63.009083 483.541141,63.009083 C483.953714,63.009083 484.16,63.8512182 484.16,65.5217577 C484.16,67.1099141 483.816189,68.6523023 483.128568,70.1489225 C474.66166,88.3783972 467.574578,97.5 461.862739,97.5 C458.145001,97.5 456.288423,93.8431206 456.288423,86.5339388 C456.288423,81.0783691 457.012717,75.7051826 458.456722,70.4189552 C450.613257,88.213632 443.351978,97.1063936 436.677469,97.1063936 C432.065823,97.1063936 429.76,93.0559077 429.76,84.950359 C429.76,78.7853825 430.791432,72.5334458 432.858879,66.1899734 C434.990505,59.8419239 438.016038,54.4687368 441.940063,50.0704126 C445.864087,45.580552 450.164011,43.3333333 454.844419,43.3333333 C457.044806,43.3333333 459.112254,43.9923954 461.037593,45.3150964 C462.962932,46.5508379 464.237324,48.5737924 464.856183,51.3931136 C465.612566,49.3701591 466.781522,47.6035065 468.367635,46.1068864 C469.949163,44.6056893 471.429841,43.8550908 472.805083,43.8550908" id="Shape"></path><path d="M504.424137,48.1069929 C503.665243,46.4349471 502.400422,45.5892591 500.625455,45.5892591 C497.779605,45.5892591 494.900026,47.7300578 491.986719,52.0068223 C489.140869,56.1917693 486.830461,61.0774293 485.055494,66.6589695 C483.347984,72.1438597 482.492121,76.9811949 482.492121,81.1661419 C482.492121,84.0559785 483.255231,85.4960638 484.773017,85.4960638 C489.895547,85.4960638 496.443109,73.0330402 504.424137,48.1069929 M527.68,5.41666667 C525.588828,7.64928277 522.835731,13.9267034 519.420711,24.244096 C516.060501,34.4745036 513.088169,45.3138065 510.495283,56.7571723 C507.898182,68.1038881 506.603847,76.3336394 506.603847,81.4512595 C506.603847,84.4232485 507.139288,85.9164919 508.218603,85.9164919 C509.289486,85.9164919 510.617549,84.8920015 512.207009,82.8478528 C513.851278,80.7940391 515.019131,79.0785006 515.718999,77.6819079 C516.410435,76.2901468 517.329539,74.1976733 518.472095,71.4044868 C519.673676,68.519483 520.681318,66.0597394 521.507668,64.0107585 C522.393044,61.8699597 522.898972,60.8019766 523.02967,60.8019766 C523.472359,60.8019766 523.691594,61.6863249 523.691594,63.4550204 C523.628353,66.7072949 521.001739,73.4969603 515.811752,83.8240184 C514.104242,87.1681097 512.046798,90.2850737 509.643636,93.1749103 C507.236258,96.055082 505.052332,97.5 503.091858,97.5 C499.735863,97.5 498.057866,93.827298 498.057866,86.4818944 C498.057866,81.0888217 498.972754,74.1541808 500.810962,65.6924694 C497.901871,74.1541808 494.575389,81.4995843 490.844163,87.738345 C487.108722,93.9674407 483.377497,97.0844046 479.642056,97.0844046 C475.400685,97.0844046 473.28,92.8076403 473.28,84.2492782 C473.28,77.7398976 474.228617,71.1338669 476.130066,64.440851 C478.09054,57.743003 480.877365,52.0696449 484.482108,47.4256101 C488.091067,42.6800927 491.982503,40.3025015 496.160632,40.3025015 C500.402002,40.3025015 503.311094,42.3514826 504.896337,46.4446121 C506.667088,41.3221596 508.471568,35.4216741 510.30556,28.7238258 C512.207009,22.0211449 513.438103,17.7008878 514.007273,15.7437243 C514.639684,13.6995758 515.082372,12.2159976 515.339552,11.2784921 C515.655757,10.3506516 516.030988,9.46630371 516.477892,8.63028075 C517.169328,7.32550509 517.991462,6.53780725 518.944295,6.2575221 C519.960369,5.88541942 521.541397,5.70178429 523.691594,5.70178429 C525.905033,5.60513428 527.233096,5.5084842 527.68,5.41666667" id="Shape"></path><path d="M549.865201,51.1686474 C549.865201,48.5982598 548.99466,47.3199632 547.253577,47.3199632 C544.820205,47.3199632 542.117379,49.4443265 539.128518,53.6930532 C536.143802,57.94178 534.651443,61.3904216 534.651443,64.0481747 C534.651443,65.8184778 535.832894,66.70133 538.195794,66.70133 C540.562839,66.70133 543.021085,65.0643749 545.570528,61.7904641 C548.186303,58.5165533 549.616479,54.9759481 549.865201,51.1686474 M559.760365,61.6525184 C560.133457,61.6525184 560.32,62.5353706 560.32,64.3056732 C560.32,65.9886105 559.822545,68.0302068 558.83179,70.4120685 C557.836885,72.8077247 556.837829,75.0608376 555.838778,77.1897988 C554.906058,79.3141624 553.629262,81.7879882 552.012543,84.6158744 C550.395819,87.4483588 548.812262,89.7060694 547.257722,91.3936048 C543.336138,95.4630024 539.385535,97.5 535.401768,97.5 C531.480183,97.5 528.304777,96.0791596 525.879695,93.2466752 C523.450468,90.3268253 522.24,85.8987691 522.24,79.9717035 C522.24,70.9454585 524.573882,62.5813527 529.241646,54.8839839 C533.90941,47.1820176 539.352371,43.3333333 545.574673,43.3333333 C548.376991,43.3333333 550.61553,44.3909168 552.298579,46.5152801 C553.973332,48.5522779 554.814856,51.0261036 554.814856,53.9505518 C554.814856,58.9028012 553.16912,62.8848328 549.869347,65.901245 C546.569579,68.9038626 542.681158,70.4074702 538.199939,70.4074702 C535.588312,70.4074702 533.656538,69.9246605 532.412907,68.9544424 C531.231457,73.4606676 530.638659,77.4472974 530.638659,80.9005378 C530.638659,88.3358092 532.848178,92.0511459 537.267216,92.0511459 C539.882987,92.0511459 542.556795,90.6349037 545.296929,87.8024192 C548.095101,84.8825694 550.462149,81.6546407 552.389775,78.1140349 C554.379585,74.4860637 556.622269,69.3085033 559.109529,62.5813527 C559.354112,61.9651955 559.573822,61.6525184 559.760365,61.6525184" id="Shape"></path><path d="M646.304314,70.2180781 C643.688778,75.6598537 641.280604,80.2296668 639.089209,83.9229527 C636.963796,87.5249332 634.522628,90.6840848 631.765712,93.4141032 C629.008802,96.139556 626.496947,97.5 624.230148,97.5 C620.05472,97.5 617.971716,94.5143279 617.971716,88.5384186 C617.971716,81.594676 620.200811,71.706349 624.654289,58.8825678 C625.64395,55.6321112 626.138783,53.3905745 626.138783,52.1625228 C626.138783,50.4003371 625.497859,49.5238095 624.230148,49.5238095 C623.45256,49.5238095 622.109446,50.0990307 620.200811,51.2403427 C618.287465,52.3816547 616.449523,54.0936227 614.682268,56.380812 C612.980995,58.663436 611.604893,60.7725804 610.539828,62.7036805 C609.474768,64.6393453 608.31545,67.5428433 607.038312,71.4050426 C605.765891,75.2718081 604.91761,77.9881305 604.493469,79.5768366 C602.443454,87.479281 601.062641,93.1904057 600.35574,96.7102121 L589.954868,96.7102121 C593.635468,84.0553447 596.142612,75.5320269 597.490437,71.1356934 C598.90895,66.7439245 599.75252,64.0184718 600.03528,62.9684645 L600.991953,59.2751792 C601.769541,56.4629861 602.155983,54.1347099 602.155983,52.2903497 C602.155983,50.4505549 601.486781,49.5238095 600.143672,49.5238095 C599.007915,49.5238095 597.452733,50.140118 595.473411,51.3727349 C593.564776,52.6007866 591.689134,54.3994945 589.846476,56.7734234 C588.008534,59.1473523 586.453352,61.9138926 585.185642,65.0776095 C583.979196,68.1545865 582.989535,70.834387 582.211947,73.117011 C581.505046,75.3996349 580.75573,78.2118274 579.978136,81.553589 C579.200548,84.8040456 578.498358,87.4838461 577.857434,89.5929905 C577.296624,91.6108299 576.688693,93.9893245 576.05248,96.7147772 L565.76,96.7147772 C566.537594,93.0169267 567.385875,89.7299482 568.304843,86.8264502 L575.204199,64.9497821 C578.031802,56.1662454 579.45032,49.7520719 579.45032,45.7072622 C579.45032,44.8307346 579.374916,44.2600787 579.233536,43.9952943 L583.687014,43.9952943 C586.095188,43.9952943 587.65037,44.2966007 588.35727,44.9174744 C589.064171,45.4424779 589.417624,46.1866133 589.417624,47.1544459 C589.417624,48.1222784 588.993484,50.3592499 588.145203,53.879056 C594.370646,46.8485742 600.59609,43.3333333 606.821528,43.3333333 C610.572821,43.3333333 612.448463,45.2644332 612.448463,49.1357635 C612.448463,50.8066442 612.05731,52.865571 611.279722,55.3262396 C617.712522,47.3279253 624.333829,43.3333333 631.124793,43.3333333 C634.800677,43.3333333 636.643331,45.2644332 636.643331,49.1357635 C636.643331,50.8933839 636.393558,52.5596994 635.898731,54.1438404 C635.408614,55.7234161 634.767689,57.7914735 633.990096,60.338882 C633.212508,62.7995507 632.576294,64.8584771 632.086177,66.5293579 C631.591344,68.1134989 631.016401,70.0856861 630.384899,72.459615 C629.04179,77.2942127 628.367877,80.8961931 628.367877,83.2655568 C628.367877,85.5481808 628.938109,86.6940582 630.064439,86.6940582 C631.266173,86.6940582 632.750662,85.7262255 634.517917,83.7905602 C636.289883,81.8594606 637.600004,80.1885798 638.448284,78.7824835 C639.367258,77.3763873 640.465311,75.3996349 641.737733,72.8476612 C643.080847,70.2180781 644.207172,67.9354542 645.130857,65.9952242 C646.04983,64.064124 646.582363,63.0962914 646.723743,63.0962914 C647.147884,63.0962914 647.359998,63.9362972 647.359998,65.6026128 C647.364668,67.1867538 647.011214,68.7252421 646.304314,70.2180781" id="Shape"></path><path d="M675.796838,43.3333333 L680,43.3333333 C677.880222,45.1923265 675.733152,49.7890171 673.549694,57.1183264 C671.766538,63.2794153 670.265408,68.8970284 669.041762,73.9813241 C667.809014,78.964035 667.053899,81.9963273 666.785516,83.0731211 C666.508038,84.1448357 665.866646,86.7860283 664.8386,90.9916193 C663.883336,95.1007054 663.09638,98.2752155 662.482281,100.520229 C660.771907,107.367012 658.793145,112.786536 656.541452,116.799117 C654.285207,120.806619 651.487649,123.981129 648.135129,126.327726 C644.791705,128.770829 641.40734,130 637.995687,130 C634.579482,130 631.677296,129.019711 629.289136,127.064213 C626.828194,125.210299 625.6,122.228799 625.6,118.119713 C625.6,115.966126 626.073084,114.010627 627.028348,112.258298 C627.919926,110.592315 628.975264,109.764403 630.203464,109.764403 C631.367972,109.764403 632.355082,110.155502 633.173878,110.937701 C633.997222,111.714821 634.574928,112.598605 634.916098,113.573815 C633.68335,114.163003 633.073804,116.220086 633.073804,119.734904 C633.073804,121.593897 633.51959,123.056711 634.40662,124.133505 C635.361884,125.306804 636.558238,125.890914 637.991134,125.890914 C643.52257,125.890914 648.16697,118.805407 651.919792,104.629315 L657.760551,82.341714 C654.549042,88.1117039 651.756031,92.4544335 649.358776,95.3902208 C647.03885,98.2295026 645.196556,99.9411985 643.827346,100.520229 C642.530912,101.109418 640.961554,101.404013 639.11926,101.404013 C637.340646,101.404013 635.90775,100.378011 634.816024,98.3260075 C633.724292,96.1774992 633.178426,93.0944148 633.178426,89.086913 C633.24666,84.9829067 634.065456,79.1722831 635.639368,71.6398052 C637.272412,64.1124071 639.051026,58.1494073 640.966101,53.7508058 C642.944863,49.3572838 644.960013,46.5180019 647.007009,45.2431186 C649.126781,43.9733146 651.992573,43.3384125 655.613481,43.3384125 C655.886411,43.3384125 656.022879,43.536502 656.022879,43.9276016 C656.022879,44.3187013 655.818177,44.806306 655.408779,45.3904159 C652.606673,48.9103127 649.740881,55.21362 646.79776,64.305417 C643.931968,73.397214 642.50362,81.076989 642.50362,87.3295042 C642.50362,90.6513118 643.14956,92.3122157 644.445988,92.3122157 C646.90693,92.3122157 650.045657,88.7973981 653.871261,81.757604 C657.696865,74.7178104 660.626338,67.6780168 662.682429,60.6433024 C662.959913,59.6630136 663.332923,58.2459123 663.806001,56.3869193 C664.351867,54.533005 664.729425,53.2632011 664.934127,52.5775069 C665.138823,51.8918127 665.448147,50.9623161 665.857545,49.7890171 C666.335177,48.5192131 666.744575,47.6862216 667.085745,47.3002012 C667.426909,46.8075172 667.877248,46.2234074 668.418561,45.5377132 C669.037209,44.8469397 669.651308,44.4101272 670.26086,44.2120377 C672.24417,43.6330071 674.091012,43.3333333 675.796838,43.3333333" id="Shape"></path></g></g><g id="Graphic"><path d="M61.8172216,168.72481 C62.0177224,166.955833 60.8401787,164.764391 58.70628,163.251741 C55.953375,161.303969 52.6546625,161.220108 51.3291308,163.068199 C50.0099642,164.914706 51.1684121,167.987473 53.9165433,169.935246 C56.6694481,171.881437 59.9697516,171.965297 61.2921009,170.118789 L61.2936921,170.118789 L78.7038273,164.94477 C79.6936002,172.933646 70.3225842,177.09976 70.3225842,177.09976 C68.7376745,178.772218 70.0600239,179.08709 70.0600239,179.08709 C70.5803707,178.023805 71.1818725,177.900388 71.1818725,177.900388 C86.5217596,172.813393 82.6342754,163.001743 82.6342754,163.001743 L61.8172216,168.72481 L61.8172216,168.72481 Z M167.395108,183.750036 C156.779715,169.091896 147.499402,176.520649 147.499402,176.520649 L160.633782,196.797427 C158.65901,197.177171 156.689012,199.162919 155.772438,201.944548 C154.591712,205.52997 155.606945,209.075834 158.043187,209.866969 C160.476246,210.659686 163.402599,208.398623 164.581734,204.816366 C165.760868,201.22778 164.747227,197.683497 162.315759,196.892363 L162.310985,196.892363 L150.907911,180.060185 C159.192087,176.333942 166.817475,184.930409 166.817475,184.930409 C169.151875,186.061732 169.04685,184.545918 169.04685,184.545918 C167.732458,184.346552 167.395108,183.750036 167.395108,183.750036 L167.395108,183.750036 Z M37.4675379,66.3171953 L20.6604958,102.165082 C18.407251,99.7742735 13.9119003,98.7948488 9.2287792,99.9625633 C3.19625728,101.468884 -0.863084174,105.972021 0.15692283,110.021048 C1.18170366,114.070074 6.90074452,116.130188 12.9316752,114.622286 C18.9657884,113.114383 23.0267211,108.612828 22.0035316,104.565384 L22.0019403,104.562219 L35.5102702,74.1193641 C47.9588112,82.2838722 42.6280414,100.320156 42.6280414,100.320156 C43.0911023,104.528992 45.1136123,103.060646 45.1136123,103.060646 C44.2400026,101.06857 44.7794447,100.084398 44.7794447,100.084398 C55.9454183,72.6193727 37.4675379,66.3171953 37.4675379,66.3171953 L37.4675379,66.3171953 Z M166.416474,85.6588515 L165.33759,107.106508 C163.712898,106.364424 161.249605,106.78056 159.13321,108.323273 C156.407356,110.309021 155.291873,113.399192 156.641274,115.22513 C157.989083,117.052651 161.287796,116.92607 164.010466,114.940322 C166.737911,112.959321 167.854986,109.867567 166.505585,108.038465 L166.503994,108.038465 L167.041844,89.9800284 C174.97594,91.5559681 176.007085,101.712553 176.007085,101.712553 C177.103473,103.734693 177.821139,102.585966 177.821139,102.585966 C176.969807,101.763186 177.039823,101.154012 177.039823,101.154012 C177.004814,85.0718298 166.416474,85.6588515 166.416474,85.6588515 L166.416474,85.6588515 Z M129.303177,111.358065 C125.582776,102.266347 119.725295,105.013166 119.725295,105.013166 L124.058336,117.388092 C122.968313,117.335877 121.673015,118.136506 120.832822,119.489345 C119.749164,121.233006 119.827137,123.234576 121.014227,123.960838 C122.194953,124.685517 124.031284,123.862737 125.114942,122.122241 C126.200191,120.37858 126.119036,118.37701 124.935128,117.649166 L121.073104,107.31695 C125.926492,106.400816 128.851255,111.908695 128.851255,111.908695 C129.938095,112.801094 130.076536,111.98939 130.076536,111.98939 C129.403427,111.714075 129.303177,111.358065 129.303177,111.358065 L129.303177,111.358065 Z M112.588428,77.5734572 L103.395635,97.0053026 C102.175128,95.7015131 99.7372947,95.1619592 97.1928466,95.7869559 C93.9148209,96.593913 91.6997671,99.030607 92.2487567,101.229961 C92.7977462,103.427733 95.8959578,104.560637 99.1755751,103.752098 C102.455192,102.946723 104.670246,100.508446 104.121256,98.3090922 L104.121256,98.3075102 L111.511135,81.802862 C118.250184,86.2616965 115.32542,96.0448657 115.32542,96.0448657 C115.568886,98.3296619 116.670048,97.5369451 116.670048,97.5369451 C116.197439,96.4546729 116.491825,95.9167015 116.491825,95.9167015 C122.607093,81.0307149 112.588428,77.5734572 112.588428,77.5734572 L112.588428,77.5734572 Z M190.737515,47.4992701 C189.095319,45.3363084 189.45813,43.9850506 189.45813,43.9850506 C194.968714,7.45995289 170.71928,5.1577515 170.71928,5.1577515 L160.8311,53.4849937 C157.397129,51.2381717 151.658993,51.3489306 146.32345,54.1210659 C139.449143,57.6922472 135.841724,64.325119 138.266826,68.9390153 C140.690338,73.5497471 148.228205,74.3946787 155.097738,70.8250796 C161.970453,67.2523166 165.579463,60.6162804 163.157543,56.0055485 L163.154361,56.0023836 L170.628577,15.1861725 C188.103955,21.4851854 186.918455,44.8980198 186.918455,44.8980198 C188.713413,49.8647622 190.737515,47.4992701 190.737515,47.4992701 L190.737515,47.4992701 Z M225.866492,157.940065 C232.129749,131.90541 214.760987,128.744037 214.760987,128.744037 L204.595925,163.031806 C202.256751,161.196374 198.10989,160.922641 194.080782,162.591935 C188.89641,164.745403 185.874579,169.314996 187.33696,172.794406 C188.800933,176.27698 194.19058,177.351341 199.374953,175.199455 C204.560917,173.044405 207.582747,168.476394 206.118775,164.995402 L206.117183,164.99382 L214.067191,135.979753 C226.297728,141.611048 223.976058,158.444808 223.976058,158.444808 C224.961057,162.139406 226.566653,160.560302 226.566653,160.560302 C225.521186,158.894173 225.866492,157.940065 225.866492,157.940065 L225.866492,157.940065 Z M141.30457,27.7367302 C143.433695,26.929773 144.183185,23.7288428 142.980182,20.5943679 C141.773996,17.4583108 139.07042,15.5690815 136.942886,16.3792033 L136.941295,16.3807856 L119.566167,11.0960071 C123.191091,3.90142991 133.313189,5.59445776 133.313189,5.59445776 C135.563251,5.07547351 134.63872,4.08497311 134.63872,4.08497311 C133.612348,4.67990625 133.044263,4.45680633 133.044263,4.45680633 C117.437042,0.238477157 115.209258,10.548542 115.209258,10.548542 L135.728743,17.2510335 C134.576661,18.6117849 134.333195,21.0848713 135.268865,23.5199833 C136.471869,26.659205 139.175444,28.5452697 141.30457,27.7367302 L141.30457,27.7367302 Z" id="Shape" fill="#B2D235"></path><path d="M92.7891874,190.063933 L88.2136734,199.701223 C87.5785813,198.992389 86.4097581,198.617403 85.1522441,198.810434 C83.4037611,199.076247 82.1462471,200.345186 82.3489695,201.642604 C82.5469408,202.938441 84.1243769,203.769105 85.8744434,203.504875 C87.4867225,203.258049 88.6793021,202.15999 88.6983074,200.973326 L93.7141096,190.339239 L103.386199,193.220458 L98.8581977,202.821357 C98.2611162,202.050816 97.0812068,201.623618 95.8126061,201.816648 C94.1195549,202.077714 92.9079701,203.343488 93.1075254,204.644072 C93.3054968,205.949402 94.8433383,206.792724 96.5363895,206.536404 C97.9617834,206.316476 99.0434989,205.38455 99.2351351,204.321299 L99.2430537,204.324464 L104.255689,193.476778 L104.258857,193.479942 L105.804617,190.013302 L94.4014665,186.597294 L92.7891874,190.063933 L92.7891874,190.063933 Z M170.131056,153.522609 L166.732283,162.402016 C166.117781,161.811849 165.051903,161.558694 163.949598,161.815014 C162.414924,162.172595 161.385473,163.387738 161.651547,164.526935 C161.919204,165.662968 163.381024,166.295855 164.914114,165.938274 C166.33159,165.60759 167.315111,164.553833 167.253344,163.500076 L170.973622,153.704564 L179.765134,155.600062 L176.405956,164.443078 C175.821545,163.797533 174.741413,163.500076 173.628022,163.759559 C172.142445,164.107647 171.151005,165.318044 171.418661,166.458823 C171.687903,167.604349 173.108545,168.249894 174.59729,167.903388 C175.848469,167.61226 176.744883,166.710396 176.841493,165.751572 L176.846245,165.753154 L180.553852,155.769359 L180.555436,155.769359 L181.692583,152.587519 L171.326803,150.33444 L170.131056,153.522609 L170.131056,153.522609 Z M37.3888811,146.948493 L37.3952162,146.940583 L24.7630595,134.629345 L24.7678108,134.62618 L20.7054384,130.770315 L10.3285714,144.926419 L14.3608521,148.877217 L25.5216857,159.981223 C24.2198261,160.511266 23.1191052,161.949502 22.7690919,163.792786 C22.2797067,166.355979 23.4231893,168.724559 25.3268819,169.086887 C27.2305745,169.449215 29.1706939,167.666056 29.6600791,165.104444 C30.1067025,162.743775 29.1722777,160.546075 27.531491,159.932174 L15.198667,147.72378 L23.9775091,135.706835 L35.1145861,146.733312 C33.7430405,147.18108 32.5678825,148.60824 32.2147016,150.468928 C31.7411541,152.951428 32.9083933,155.258302 34.8184209,155.62063 C36.7316162,155.986123 38.6669843,154.270998 39.1405318,151.786916 C39.5412258,149.69997 38.7778482,147.734856 37.3888811,146.948493 L37.3888811,146.948493 Z M114.897046,43.1882216 L114.916051,43.1739816 L89.5107815,10.3287189 L89.5187006,10.32239 L81.3163513,0 L52.4727152,29.6001337 L60.5705359,40.1313765 L82.9476351,69.6856259 C79.7468343,70.4925569 76.7059938,73.4861132 75.2821839,77.6679152 C73.2993025,83.4825664 75.1934926,89.3842396 79.5092684,90.8509556 C83.8250441,92.319254 88.9327052,88.7988189 90.912419,82.9841677 C92.7385067,77.6299424 91.2719347,72.2045167 87.6561859,70.2346557 L62.9113494,37.7232407 L87.3251777,12.580215 L109.672185,41.9366872 C106.325678,42.5331833 103.118541,45.477691 101.680477,49.6990485 C99.7641147,55.3317447 101.724823,61.0957647 106.061188,62.571974 C110.402304,64.0466008 115.47829,60.6764767 117.394652,55.045363 C119.013266,50.3097847 117.877702,45.4808554 114.897046,43.1882216 L114.897046,43.1882216 Z M239.427368,92.7211372 L239.443206,92.7116439 L224.950118,66.0591821 L224.956453,66.0560176 L220.243151,57.6528583 L195.979781,75.6474231 L200.598057,84.1882356 L213.288813,108.112954 C210.884649,108.324971 208.341113,110.130281 206.828612,112.981438 C204.720612,116.943312 205.398467,121.419407 208.339529,122.982638 C211.283759,124.545869 215.379391,122.598159 217.484222,118.634703 C219.424342,114.986109 219.003059,110.899239 216.624235,109.057538 L202.561933,82.7231021 L223.106609,67.4309651 L235.805284,91.2085371 C233.325099,91.2480924 230.669115,93.002772 229.134441,95.8760799 C227.094544,99.7177051 227.835749,104.103613 230.794233,105.674756 C233.751133,107.244316 237.80717,105.402614 239.850235,101.564153 C241.563875,98.3364287 241.312055,94.7194783 239.427368,92.7211372 L239.427368,92.7211372 Z M181.944403,118.481228 L177.332462,126.357509 C176.843077,125.707218 175.875393,125.297423 174.79051,125.370205 C173.279593,125.468303 172.113937,126.454024 172.18679,127.574235 C172.25806,128.696027 173.544082,129.523527 175.054999,129.422265 C176.448718,129.332079 177.544688,128.485592 177.653968,127.477719 L182.714116,118.785014 L190.74225,121.955778 L186.169904,129.806744 C185.720113,129.104239 184.746094,128.651725 183.64854,128.724507 C182.185136,128.824187 181.059075,129.811491 181.131928,130.936448 C181.204782,132.061405 182.45121,132.896816 183.916198,132.8003 C185.146788,132.719608 186.139812,132.006027 186.382129,131.113656 L186.388464,131.115238 L191.466034,122.238996 L193.041886,119.402079 L183.580438,115.645893 L181.944403,118.481228 L181.944403,118.481228 Z M148.631366,129.415936 L146.078327,133.768618 C145.813838,133.409455 145.276939,133.183197 144.673522,133.222753 C143.840459,133.27813 143.195864,133.823996 143.237042,134.44106 C143.276636,135.062872 143.989333,135.520133 144.82398,135.464756 C145.592109,135.414125 146.200278,134.944206 146.258877,134.387265 L149.058984,129.582069 L153.498294,131.335167 L150.970595,135.673608 C150.72036,135.287547 150.183462,135.037557 149.576877,135.078694 C148.76757,135.129325 148.145148,135.676773 148.186326,136.301749 C148.224337,136.920396 148.918028,137.382404 149.727336,137.33019 C150.405189,137.285889 150.954758,136.890334 151.087795,136.398264 L151.089379,136.399847 L153.894237,131.493389 L153.89582,131.493389 L154.768478,129.92541 L149.535699,127.847958 L148.631366,129.415936 L148.631366,129.415936 Z M90.8332304,137.298546 C91.5427595,137.917194 92.7923549,137.640305 93.6254183,136.686228 C94.3935473,135.806514 94.5345028,134.657824 94.0007722,133.999622 L91.816752,125.865439 L98.4400823,122.968398 L100.411877,130.316218 C99.7276877,130.169072 98.8851216,130.482351 98.2832885,131.173781 C97.4739819,132.099378 97.3995443,133.350913 98.1122416,133.972724 C98.8249382,134.591371 100.057112,134.342963 100.863251,133.418948 C101.542689,132.642079 101.701066,131.632624 101.313042,130.960181 L101.319377,130.960181 L99.0355797,122.710497 L99.0371638,122.708914 L98.2769534,120.098255 L90.4594606,123.501605 L91.1800764,126.14391 L93.1471195,133.528121 C92.4676818,133.431606 91.6567912,133.768618 91.0565421,134.455301 C90.2234787,135.409378 90.1237013,136.679899 90.8332304,137.298546 L90.8332304,137.298546 Z M139.375808,87.3020404 L148.842007,84.6027766 L150.162872,94.8729537 C149.264874,94.5485992 148.072295,94.8175762 147.131535,95.6419113 C145.874021,96.7447174 145.541429,98.4218683 146.39033,99.3886036 C147.239231,100.356921 148.946536,100.243001 150.205634,99.1417778 C151.26201,98.2161803 151.662703,96.8807881 151.260425,95.9077244 L151.266761,95.9077244 L149.689325,84.3591152 L149.694076,84.3591152 L149.144508,80.699445 L137.975755,83.8670455 L138.468308,87.5631066 L139.770168,97.8839143 C138.878505,97.633924 137.717601,97.931381 136.783176,98.7525523 C135.487651,99.8917492 135.118633,101.591051 135.962783,102.55304 C136.806932,103.515028 138.545913,103.372628 139.841437,102.235014 C141.034017,101.187586 141.441046,99.6623276 140.839213,98.6766055 L139.375808,87.3020404 L139.375808,87.3020404 Z M76.0392262,128.817858 L73.6952452,111.644464 L73.6984127,111.642882 L72.8859386,106.203217 L56.278517,110.90715 L57.0086349,116.408522 L58.9424196,131.757619 C57.6168031,131.382633 55.8889089,131.831983 54.5031096,133.051873 C52.5756604,134.743264 52.0260918,137.273231 53.2820222,138.700392 C54.5395361,140.132299 57.1210831,139.920282 59.0501156,138.230472 C60.8271066,136.670405 61.4305237,134.401505 60.5325254,132.936372 L58.3564242,116.020879 L72.4329801,112.008374 L74.3952722,127.279942 C73.0617371,126.80053 71.2879138,127.199249 69.8846927,128.425468 C68.0158429,130.066228 67.5264579,132.556639 68.7871395,133.994875 C70.0509886,135.433111 72.5881893,135.266978 74.4602066,133.630965 C76.0297236,132.252853 76.6283892,130.270334 76.0281401,128.81944 L76.0392262,128.817858 L76.0392262,128.817858 L76.0392262,128.817858 Z" id="Shape" fill="#046737"></path><path d="M152.527048,252.801199 C145.621556,245.154327 142.793165,234.697095 140.012741,224.974461 C136.899753,214.093113 135.227342,204.290457 136.173869,192.756133 C137.955003,171.067058 153.049877,151.40253 171.900481,141.164557 C171.900481,141.164557 153.606282,143.994124 134.853208,164.817364 C134.333577,163.905118 133.69563,163.090497 132.961752,162.405511 C135.222545,160.470587 136.666319,157.52899 136.666319,154.232097 C136.666319,148.406519 132.160721,143.683639 126.599873,143.683639 C121.039024,143.683639 116.533426,148.406519 116.533426,154.232097 C116.533426,157.863481 118.285781,161.065948 120.951087,162.964062 C120.308343,163.669853 119.755137,164.481273 119.312251,165.377516 C104.07348,143.304336 85.7041341,144.94318 85.7041341,144.94318 C140.885721,177.070284 108.134595,240.210588 100.645516,253.121286 C60.6195597,258.041019 34.4285714,272 34.4285714,272 C145.787837,246.023363 220.342857,272 220.342857,272 C196.700458,260.957008 173.761559,255.189046 152.527048,252.801199" id="Shape" fill="#646567"></path></g></g></g></svg> 