<?xml version="1.0" encoding="UTF-8" standalone="no"?>
<svg width="400px" height="383px" viewBox="0 0 400 383" version="1.1" xmlns="http://www.w3.org/2000/svg" xmlns:xlink="http://www.w3.org/1999/xlink">
    
    <title>Artboard 1</title>
    <desc>Created with Sketch.</desc>
    <defs>
        <rect id="path-1" x="0" y="0" width="726.849261" height="459.351604"></rect>
        <rect id="path-3" x="0" y="0" width="726.849261" height="459.351604"></rect>
        <rect id="path-5" x="0" y="0" width="726.849261" height="459.351604"></rect>
        <rect id="path-7" x="0" y="0" width="726.849261" height="459.351604"></rect>
        <rect id="path-9" x="0" y="0" width="726.849261" height="459.351604"></rect>
        <rect id="path-11" x="0" y="0" width="726.849261" height="459.351604"></rect>
        <rect id="path-13" x="0" y="0" width="726.849261" height="459.351604"></rect>
        <rect id="path-15" x="0" y="0" width="726.849261" height="459.351604"></rect>
        <rect id="path-17" x="0" y="0" width="726.849261" height="459.351604"></rect>
        <rect id="path-19" x="0" y="0" width="726.849261" height="459.351604"></rect>
        <rect id="path-21" x="0" y="0" width="726.849261" height="459.351604"></rect>
        <rect id="path-23" x="0" y="0" width="726.849261" height="459.351604"></rect>
        <rect id="path-25" x="0" y="0" width="726.849261" height="459.351604"></rect>
        <rect id="path-27" x="0" y="0" width="726.849261" height="459.351604"></rect>
        <rect id="path-29" x="0" y="0" width="726.849261" height="459.351604"></rect>
        <rect id="path-31" x="0" y="0" width="726.849261" height="459.351604"></rect>
        <rect id="path-33" x="0" y="0" width="726.849261" height="459.351604"></rect>
        <rect id="path-35" x="0" y="0" width="726.849261" height="459.351604"></rect>
        <rect id="path-37" x="0" y="0" width="726.849261" height="459.351604"></rect>
        <rect id="path-39" x="0" y="0" width="726.849261" height="459.351604"></rect>
        <rect id="path-41" x="0" y="0" width="726.849261" height="459.351604"></rect>
        <rect id="path-43" x="0" y="0" width="726.849261" height="459.351604"></rect>
        <rect id="path-45" x="0" y="0" width="726.849261" height="459.351604"></rect>
        <rect id="path-47" x="0" y="0" width="726.849261" height="459.351604"></rect>
        <rect id="path-49" x="0" y="0" width="726.849261" height="459.351604"></rect>
        <rect id="path-51" x="0" y="0" width="726.849261" height="459.351604"></rect>
        <rect id="path-53" x="0" y="0" width="726.849261" height="459.351604"></rect>
        <rect id="path-55" x="0" y="0" width="726.849261" height="459.351604"></rect>
        <rect id="path-57" x="0" y="0" width="726.849261" height="459.351604"></rect>
        <rect id="path-59" x="0" y="0" width="726.849261" height="459.351604"></rect>
        <rect id="path-61" x="0" y="0" width="726.849261" height="459.351604"></rect>
        <rect id="path-63" x="0" y="0" width="726.849261" height="459.351604"></rect>
        <rect id="path-65" x="0" y="0" width="726.849261" height="459.351604"></rect>
        <rect id="path-67" x="0" y="0" width="726.849261" height="459.351604"></rect>
        <rect id="path-69" x="0" y="0" width="726.849261" height="459.351604"></rect>
        <rect id="path-71" x="0" y="0" width="726.849261" height="459.351604"></rect>
        <rect id="path-73" x="0" y="0" width="726.849261" height="459.351604"></rect>
        <rect id="path-75" x="0" y="0" width="726.849261" height="459.351604"></rect>
        <rect id="path-77" x="0" y="0" width="726.849261" height="459.351604"></rect>
        <rect id="path-79" x="0" y="0" width="726.849261" height="459.351604"></rect>
        <rect id="path-81" x="0" y="0" width="726.849261" height="459.351604"></rect>
    </defs>
    <g id="Page-1" stroke="none" stroke-width="1" fill="none" fill-rule="evenodd">
        <g id="logo" transform="translate(-164.000000, -39.000000)">
            <g id="Group">
                <g id="Clipped">
                    <mask id="mask-2" fill="white">
                        <use xlink:href="#path-1"></use>
                    </mask>
                    <g id="SVGID_1_"></g>
                    <path d="M217.853479,331.485734 L217.853479,332.211058 C217.853479,335.263072 217.13433,338.737406 215.696032,342.637201 C214.259305,346.533857 212.491266,349.964232 210.393486,352.925188 C209.261376,354.496724 207.929851,355.856314 206.397341,357.003959 C204.888384,358.153174 203.357445,358.727782 201.801382,358.727782 C198.87768,358.727782 197.4174,355.919113 197.4174,350.298635 C197.4174,348.24198 197.629376,345.857201 198.053328,343.136451 C196.143972,347.971945 194.316266,351.688055 192.57335,354.287918 C190.356235,357.551877 188.035488,359.183072 185.606397,359.183072 C184.49941,359.183072 183.580847,358.653993 182.849136,357.595836 C182.142549,356.537679 181.789255,354.845256 181.789255,352.520137 C181.789255,349.468123 182.624598,345.706485 184.298425,341.235222 C185.995806,336.73256 188.011935,333.154608 190.345244,330.493515 C190.769197,329.980137 191.299922,329.571945 191.935851,329.268942 C191.04084,329.510717 189.66221,329.768191 187.799959,330.039795 C185.937708,330.28157 184.700395,330.493515 184.086449,330.674061 C181.564717,331.399386 180.303851,333.332014 180.303851,336.476655 C179.57214,335.509556 179.207855,334.467099 179.207855,333.349283 C179.207855,329.36 182.200646,327.364573 188.187797,327.364573 L195.437384,327.364573 C195.48449,327.364573 195.508043,327.424232 195.508043,327.545119 C195.508043,327.636177 195.354164,327.893652 195.047976,328.315973 C194.765341,328.739863 194.493698,329.056997 194.234616,329.265802 C193.22027,330.052355 192.053616,331.683549 190.734652,334.160956 C189.414119,336.638362 188.21135,339.585188 187.127916,342.999863 C186.042911,346.38314 185.501194,349.421024 185.501194,352.111945 C185.501194,354.799727 186.243896,356.143618 187.7293,356.143618 C189.401557,356.143618 192.019071,352.758771 195.578702,345.990648 C196.308842,344.571399 197.145756,342.455085 198.087873,339.644846 C199.031559,336.804778 199.691041,334.931809 200.067888,334.025939 C200.446305,333.088669 201.116778,332.151399 202.084017,331.2157 C203.07324,330.248601 203.969821,329.765051 204.77062,329.765051 C205.596542,329.765051 206.007933,329.915768 206.007933,330.218771 C204.759629,332.393174 203.580413,335.34 202.473425,339.056109 C201.364868,342.772218 200.81059,346.323481 200.81059,349.706758 C200.81059,353.846758 201.765268,355.992901 203.674624,356.143618 C204.900946,356.143618 206.102145,355.390034 207.281361,353.878157 C208.48413,352.36628 209.485914,350.629898 210.286713,348.66587 C211.112635,346.670444 211.87732,344.436382 212.585477,341.958976 C213.786676,337.818976 214.38806,334.526758 214.38806,332.077611 C214.38806,329.630034 213.763123,328.407031 212.514819,328.407031 C212.137972,328.407031 211.712449,328.512218 211.241391,328.724164 C211.288497,328.180956 211.571132,327.741365 212.090866,327.410102 C212.632583,327.04744 213.328179,326.865324 214.176084,326.865324 C215.049112,326.865324 215.860903,327.259386 216.616166,328.044369 C217.36986,328.796382 217.781251,329.944027 217.853479,331.485734" id="Shape" fill="#2194D2" mask="url(#mask-2)"></path>
                </g>
                <g id="Clipped">
                    <mask id="mask-4" fill="white">
                        <use xlink:href="#path-3"></use>
                    </mask>
                    <g id="SVGID_1_"></g>
                    <path d="M220.788173,340.86785 L222.554641,340.913379 L222.909505,340.913379 C222.531089,341.274471 222.025486,342.2557 221.387987,343.858635 C220.775611,345.46 220.315544,346.668874 220.009356,347.485256 C219.703168,348.301638 219.349875,349.403754 218.949475,350.793174 C218.571058,352.182594 218.382635,353.314539 218.382635,354.19215 C218.382635,355.068191 218.607173,355.506212 219.054678,355.506212 C219.360866,355.506212 219.786389,355.250307 220.328106,354.736928 C220.893376,354.19215 221.353443,353.633242 221.706737,353.060205 C222.06003,352.455768 222.449438,351.700614 222.873391,350.794744 C223.320896,349.888874 223.699313,349.102321 224.005501,348.438225 C224.335242,347.77099 224.523665,347.439727 224.570771,347.439727 C224.712089,347.439727 224.782747,347.728601 224.782747,348.301638 C224.782747,348.846416 224.664983,349.375495 224.429454,349.888874 C223.556425,351.760273 222.755626,353.331809 222.025486,354.601911 C221.317328,355.840614 220.503968,356.927031 219.585404,357.86587 C218.66527,358.80157 217.829927,359.27099 217.074663,359.27099 C215.75413,359.27099 215.094648,358.091945 215.094648,355.735427 C215.094648,352.078976 216.072879,348.030034 218.029341,343.590171 C218.855263,341.77372 219.773827,340.86785 220.788173,340.86785 M225.596108,334.88471 L225.45479,334.88471 C224.983732,334.88471 224.523665,335.142184 224.07616,335.655563 C223.650637,336.168942 223.344449,336.69802 223.156026,337.242799 C222.54365,336.941365 222.237462,336.396587 222.237462,335.611604 C222.237462,334.825051 222.520097,334.040068 223.085367,333.255085 C223.650637,332.437133 224.193924,332.030512 224.712089,332.030512 C225.230253,332.030512 225.619661,332.181229 225.878743,332.484232 C226.137825,332.784096 226.268151,333.178157 226.268151,333.661706 C226.268151,334.113857 226.043613,334.522048 225.596108,334.88471" id="Shape" fill="#2194D2" mask="url(#mask-4)"></path>
                </g>
                <g id="Clipped">
                    <mask id="mask-6" fill="white">
                        <use xlink:href="#path-5"></use>
                    </mask>
                    <g id="SVGID_1_"></g>
                    <path d="M235.807082,326.408464 L235.560562,326.408464 C234.122263,326.408464 231.823499,331.937884 228.664268,342.996724 C231.894158,338.131399 234.098711,334.142116 235.276356,331.032014 C235.937408,329.127645 236.267149,327.888942 236.267149,327.315904 C236.267149,326.713038 236.11327,326.408464 235.807082,326.408464 M236.549784,331.350717 C235.701879,333.554949 234.404898,336.063754 232.660413,338.873993 C230.915927,341.654403 229.348873,343.888464 227.95768,345.580887 L227.39241,347.665802 C227.109775,348.723959 226.838132,350.008191 226.57905,351.518498 C226.319968,353.028805 226.202203,354.101092 226.225756,354.736928 C226.225756,355.642799 226.484838,356.096519 227.003002,356.096519 C227.521166,356.096519 228.135112,355.718157 228.8417,354.963003 C229.57184,354.20785 230.102566,353.556314 230.432307,353.014676 C230.763618,352.440068 231.140464,351.699044 231.564417,350.793174 C232.011922,349.887304 232.388769,349.100751 232.696527,348.436655 C233.026268,347.77099 233.214691,347.439727 233.261797,347.439727 C233.403114,347.439727 233.473773,347.725461 233.473773,348.300068 C233.473773,348.844846 233.356009,349.372355 233.120479,349.887304 C231.823499,352.695973 230.774609,354.6757 229.97381,355.823345 C228.347089,358.120205 226.673261,359.26785 224.952328,359.26785 C223.631795,359.26785 222.972313,358.120205 222.972313,355.823345 C222.972313,353.557884 223.762121,349.6 225.341737,343.949693 C225.459501,343.466143 225.729575,342.453515 226.155097,340.911809 C226.57905,339.371672 226.944905,338.178498 227.251093,337.332287 C227.557281,336.456246 227.970242,335.307031 228.488406,333.887782 C229.00657,332.468532 229.501181,331.333447 229.97381,330.488805 C230.468421,329.644164 231.010138,328.780683 231.598961,327.904642 C232.754624,326.15256 234.004499,325.276519 235.347015,325.276519 C236.691102,325.276519 237.363145,326.061502 237.363145,327.633038 C237.363145,328.841911 237.091501,330.080614 236.549784,331.350717" id="Shape" fill="#2194D2" mask="url(#mask-6)"></path>
                </g>
                <g id="Clipped">
                    <mask id="mask-8" fill="white">
                        <use xlink:href="#path-7"></use>
                    </mask>
                    <g id="SVGID_1_"></g>
                    <path d="M242.810149,333.02587 C241.654486,334.052628 240.359076,336.682321 238.920778,340.911809 L242.4914,340.911809 L242.527514,340.957338 C242.527514,341.108055 242.397188,341.381229 242.138106,341.77372 C241.879024,342.136382 241.654486,342.318498 241.466063,342.318498 L238.426166,342.318498 C236.563916,348.23884 235.63279,352.046007 235.63279,353.73843 C235.63279,354.887645 235.915425,355.460683 236.480695,355.460683 C237.306618,355.460683 238.272287,354.556382 239.380844,352.743072 C239.639927,352.35058 239.982229,351.686485 240.406181,350.747645 C241.489616,348.512014 242.056456,347.394198 242.103562,347.394198 C242.244879,347.394198 242.315538,347.634403 242.315538,348.117952 C242.291985,349.267167 241.313754,351.502799 239.380844,354.826416 C238.743346,355.912833 237.978661,356.927031 237.08208,357.86273 C236.187069,358.8 235.373708,359.26942 234.641998,359.26942 C233.299482,359.26942 232.627438,358.058976 232.627438,355.642799 C232.627438,353.617543 233.004285,351.292423 233.757978,348.6643 L233.757978,348.618771 C233.310473,349.676928 232.921065,350.461911 232.591324,350.97529 C232.285136,351.488669 232.109274,351.746143 232.062168,351.746143 C231.966387,351.746143 231.919281,351.565597 231.919281,351.201365 C231.919281,350.807304 232.07316,350.188737 232.379348,349.342526 C232.709089,348.496314 233.145603,347.394198 233.68732,346.033038 C234.25416,344.675017 234.712657,343.436314 235.067521,342.318498 L232.698097,342.318498 C232.627438,342.318498 232.591324,342.25884 232.591324,342.137952 C232.591324,341.985666 232.674544,341.745461 232.839415,341.412628 C233.027838,341.079795 233.169156,340.913379 233.263367,340.913379 L235.95154,340.913379 C237.64735,335.686962 239.368283,333.072969 241.112769,333.072969 C242.127114,333.071399 242.692384,333.05727 242.810149,333.02587" id="Shape" fill="#2194D2" mask="url(#mask-8)"></path>
                </g>
                <g id="Clipped">
                    <mask id="mask-10" fill="white">
                        <use xlink:href="#path-9"></use>
                    </mask>
                    <g id="SVGID_1_"></g>
                    <path d="M251.722572,345.036109 C251.628361,343.434744 251.061521,342.635631 250.026762,342.635631 C248.398471,342.635631 246.807864,344.660887 245.253371,348.708259 C244.402326,350.945461 243.979944,352.969147 243.979944,354.780887 C243.979944,356.594198 244.59232,357.547167 245.818641,357.636655 C246.831417,357.636655 247.762542,356.95686 248.612017,355.59727 C249.481905,354.20471 250.213616,352.680273 250.804009,351.019249 C250.001639,350.141638 249.59967,349.037952 249.60124,347.709761 C249.59967,346.894949 249.76611,346.244983 250.097421,345.761433 C250.449145,345.277884 250.920203,345.036109 251.510596,345.036109 L251.722572,345.036109 M257.628073,347.846348 C257.697162,347.665802 257.767821,347.574744 257.84005,347.574744 C257.979797,347.574744 258.050456,347.802389 258.052026,348.254539 C258.050456,349.706758 257.591959,350.914061 256.673395,351.88116 C255.776814,352.81843 254.927339,353.28628 254.12811,353.28628 C253.347724,353.28628 252.677251,353.000546 252.111981,352.425939 C251.262505,354.570512 250.24816,356.262935 249.072084,357.501638 C247.914851,358.740341 246.418456,359.360478 244.581328,359.360478 C243.400542,359.360478 242.436443,358.906758 241.681179,358.000887 C240.951039,357.063618 240.585184,355.660068 240.585184,353.785529 C240.585184,351.88116 240.914924,349.932833 241.575976,347.938976 C242.259011,345.91372 243.273356,344.177338 244.615873,342.726689 C245.981942,341.276041 247.50189,340.550717 249.177287,340.550717 C251.981654,340.550717 253.383838,342.455085 253.385408,346.262253 C253.383838,347.711331 253.135747,349.237338 252.642706,350.838703 C252.99443,351.474539 253.501603,351.791672 254.162654,351.791672 C255.387406,351.791672 256.543069,350.474471 257.628073,347.846348" id="Shape" fill="#2194D2" mask="url(#mask-10)"></path>
                </g>
                <g id="Clipped">
                    <mask id="mask-12" fill="white">
                        <use xlink:href="#path-11"></use>
                    </mask>
                    <g id="SVGID_1_"></g>
                    <path d="M273.19341,349.887304 C272.321952,351.758703 271.519583,353.330239 270.789443,354.600341 C270.081285,355.839044 269.269495,356.925461 268.349361,357.8643 C267.430797,358.80157 266.593883,359.26942 265.83862,359.26942 C264.448998,359.26942 263.753402,358.286621 263.753402,356.322594 C263.753402,354.358567 264.637421,350.416382 266.40546,344.492901 C266.499672,344.221297 266.546778,343.935563 266.546778,343.63256 C266.546778,342.998294 266.228028,342.68116 265.592099,342.68116 C264.978153,342.68116 264.365778,342.937065 263.753402,343.452014 C263.163009,343.935563 262.621292,344.645188 262.12668,345.580887 C261.632069,346.488328 261.182994,347.424027 260.782594,348.391126 C260.382194,349.328396 260.005348,350.416382 259.652054,351.655085 C259.320743,352.893788 259.05067,353.936246 258.838693,354.780887 C258.65027,355.59727 258.449285,356.48901 258.237309,357.454539 C258.048886,358.393379 257.942112,358.906758 257.918559,358.996246 L254.489255,358.996246 C254.489255,358.36198 255.525583,354.719659 257.60138,348.072423 C258.449285,344.960751 258.873238,342.784778 258.873238,341.546075 C258.873238,341.246212 258.838693,341.016997 258.768035,340.86628 L260.251868,340.86628 C261.07779,340.86628 261.608516,340.969898 261.844045,341.183413 C262.079575,341.395358 262.197339,341.681092 262.197339,342.045324 C262.197339,342.406416 262.067013,343.14744 261.807931,344.265256 C263.787946,341.847509 265.780523,340.638635 267.784091,340.638635 C269.126607,340.638635 269.79865,341.423618 269.79865,342.995154 C269.79865,343.508532 269.740553,344.021911 269.622788,344.53529 C269.505024,345.050239 269.209827,346.075427 268.738769,347.617133 C267.70087,351.00198 267.182706,353.26901 267.182706,354.416655 C267.182706,355.14198 267.394683,355.504642 267.818635,355.504642 C268.124823,355.504642 268.550346,355.231468 269.092063,354.686689 C269.657333,354.143481 270.1174,353.584573 270.470693,353.009966 C270.84754,352.405529 271.24951,351.666075 271.673462,350.788464 C272.120968,349.884164 272.497814,349.099181 272.804002,348.431945 C273.11019,347.76785 273.287622,347.435017 273.334728,347.435017 C273.476045,347.435017 273.546704,347.723891 273.546704,348.296928 C273.546704,348.844846 273.42894,349.373925 273.19341,349.887304" id="Shape" fill="#2194D2" mask="url(#mask-12)"></path>
                </g>
                <g id="Clipped">
                    <mask id="mask-14" fill="white">
                        <use xlink:href="#path-13"></use>
                    </mask>
                    <g id="SVGID_1_"></g>
                    <path d="M303.895421,333.752765 C301.208819,336.985324 298.261564,340.731263 295.056797,344.99215 L301.844747,344.99215 C302.2687,342.001365 302.953305,338.253857 303.895421,333.752765 M307.536702,327.361433 L310.083557,327.361433 C308.998553,328.692765 307.891566,332.331945 306.759456,338.283686 C305.650898,344.207167 305.09819,348.785188 305.09819,352.017747 C305.09819,354.314608 305.427931,355.900273 306.087413,356.776314 C306.370048,357.168805 306.724911,357.365051 307.148864,357.365051 C307.572816,357.365051 308.020322,357.168805 308.49138,356.776314 L308.704927,357.184505 C308.373616,357.788942 307.784793,358.31802 306.936888,358.770171 C306.087413,359.195631 305.250499,359.406007 304.426147,359.406007 C303.199825,359.406007 302.362911,358.847099 301.915406,357.727713 C301.467901,356.609898 301.208819,355.11529 301.13816,353.242321 C301.13816,351.702184 301.290469,349.708328 301.596657,347.259181 L293.500734,347.259181 C289.98821,352.033447 287.230948,355.945802 285.22738,358.999386 L281.691302,358.999386 C283.906847,356.401092 287.348713,352.140205 292.01533,346.216724 C298.026035,338.54116 301.975073,333.225256 303.860877,330.2643 C304.331935,329.537406 304.685229,329.039727 304.920758,328.768123 C305.156287,328.465119 305.509581,328.162116 305.98221,327.862253 C306.476821,327.52785 306.994985,327.361433 307.536702,327.361433 M297.814058,327.361433 L305.734119,327.361433 C305.145296,328.116587 304.119959,328.692765 302.658108,329.085256 C301.196257,329.477747 299.545983,329.793311 297.707285,330.035085 C295.868587,330.247031 294.667389,330.427577 294.102119,330.579863 C291.578816,331.335017 290.31795,333.269215 290.31795,336.380887 C289.58781,335.413788 289.221955,334.371331 289.221955,333.253515 C289.221955,329.325461 292.085989,327.361433 297.814058,327.361433" id="Shape" fill="#2194D2" mask="url(#mask-14)"></path>
                </g>
                <g id="Clipped">
                    <mask id="mask-16" fill="white">
                        <use xlink:href="#path-15"></use>
                    </mask>
                    <g id="SVGID_1_"></g>
                    <path d="M323.130302,347.394198 C323.27162,347.394198 323.342279,347.681502 323.342279,348.256109 C323.342279,348.829147 323.142864,349.538771 322.740894,350.383413 C322.364048,351.229625 322.05786,351.87959 321.82233,352.333311 C321.610354,352.757201 321.233508,353.451126 320.69022,354.418225 C320.148503,355.385324 319.677445,356.079249 319.277045,356.50314 C318.875076,356.925461 318.369473,357.42471 317.755527,357.997747 C316.719199,358.964846 315.364121,359.448396 313.690294,359.448396 C312.040019,359.448396 310.837251,358.919317 310.083557,357.86273 C309.351847,356.774744 308.987562,355.369625 308.987562,353.645802 C308.987562,350.472901 309.859019,347.571604 311.603505,344.943481 C313.371544,342.285529 315.445771,340.955768 317.826186,340.955768 C318.887637,340.955768 319.735542,341.31686 320.373041,342.042184 C321.00897,342.736109 321.327719,343.582321 321.327719,344.580819 C321.327719,345.546348 321.115743,346.39256 320.69022,347.117884 C320.266268,347.844778 319.782648,348.20587 319.240931,348.20587 C318.18105,348.20587 317.650324,347.648532 317.650324,346.527577 C317.650324,346.168055 317.94395,345.819522 318.534343,345.486689 C318.769873,345.367372 318.981849,345.138157 319.170272,344.805324 C319.358695,344.474061 319.452907,344.036041 319.452907,343.491263 C319.452907,342.70628 319.123166,342.313788 318.463685,342.313788 C317.04894,342.313788 315.646756,343.62785 314.255564,346.255973 C312.864371,348.885666 312.168775,351.44 312.168775,353.915836 C312.168775,356.364983 313.005689,357.589556 314.679516,357.589556 C317.012825,357.589556 319.288037,355.275427 321.503581,350.655017 C321.951086,349.747577 322.316942,348.976724 322.599577,348.340887 C322.905765,347.711331 323.083197,347.394198 323.130302,347.394198" id="Shape" fill="#2194D2" mask="url(#mask-16)"></path>
                </g>
                <g id="Clipped">
                    <mask id="mask-18" fill="white">
                        <use xlink:href="#path-17"></use>
                    </mask>
                    <g id="SVGID_1_"></g>
                    <path d="M333.221942,343.857065 C332.986413,342.893106 332.432134,342.407986 331.560676,342.407986 C330.004613,342.407986 328.495657,343.797406 327.033806,346.577816 C325.573525,349.326826 324.841814,351.790102 324.841814,353.964505 C324.841814,354.901775 325.124449,355.369625 325.691289,355.369625 C326.303665,355.369625 327.022814,354.886075 327.847166,353.918976 C328.673089,352.922048 329.41579,351.758703 330.075272,350.428942 C331.537123,347.469556 332.586013,345.279454 333.221942,343.857065 M336.156635,340.86785 L337.924674,340.911809 L338.277968,340.911809 C337.500721,341.729761 336.546043,343.797406 335.413933,347.121024 C334.283393,350.416382 333.716553,352.81686 333.716553,354.327167 C333.716553,355.11372 333.928529,355.506212 334.354052,355.506212 C335.720121,355.506212 337.464607,352.922048 339.58594,347.75529 C339.680151,347.543345 339.763371,347.438157 339.83403,347.438157 C339.975348,347.438157 340.046006,347.727031 340.046006,348.300068 C340.046006,348.844846 339.928242,349.373925 339.692713,349.887304 C336.792564,356.140478 334.365043,359.26942 332.408581,359.26942 C331.135153,359.26942 330.499225,358.015017 330.499225,355.507782 C330.499225,353.636382 330.747315,351.793242 331.241927,349.979932 C328.555324,356.083959 326.068136,359.134403 323.781933,359.134403 C322.202317,359.134403 321.41251,357.744983 321.41251,354.964573 C321.41251,352.849829 321.765803,350.705256 322.473961,348.529283 C323.204102,346.351741 324.24043,344.508601 325.584516,342.999863 C326.928603,341.459727 328.401445,340.688874 330.004613,340.688874 C330.758307,340.688874 331.466464,340.914949 332.125946,341.368669 C332.785428,341.79256 333.221942,342.486485 333.433918,343.453584 C333.693,342.759659 334.0934,342.153652 334.636687,341.640273 C335.178404,341.125324 335.685577,340.86785 336.156635,340.86785" id="Shape" fill="#2194D2" mask="url(#mask-18)"></path>
                </g>
                <g id="Clipped">
                    <mask id="mask-20" fill="white">
                        <use xlink:href="#path-19"></use>
                    </mask>
                    <g id="SVGID_1_"></g>
                    <path d="M349.723114,343.224369 C349.440479,342.68116 348.969421,342.406416 348.308369,342.406416 C347.248488,342.406416 346.176045,343.101911 345.091041,344.491331 C344.03116,345.850922 343.170693,347.438157 342.509641,349.251468 C341.873713,351.033379 341.554963,352.604915 341.554963,353.964505 C341.554963,354.903345 341.839168,355.371195 342.404438,355.371195 C344.312225,355.371195 346.750737,351.322253 349.723114,343.224369 M358.384307,329.35529 C357.60549,330.080614 356.580153,332.12 355.308296,335.471877 C354.056851,338.795495 352.949864,342.316928 351.984194,346.034608 C351.016955,349.720887 350.534905,352.394539 350.534905,354.057133 C350.534905,355.022662 350.73432,355.507782 351.136289,355.507782 C351.535119,355.507782 352.02973,355.174949 352.621693,354.510853 C353.234069,353.843618 353.669013,353.28628 353.929665,352.83256 C354.187177,352.38041 354.529479,351.700614 354.955002,350.793174 C355.402508,349.855904 355.777784,349.056792 356.085542,348.391126 C356.415283,347.695631 356.603706,347.348669 356.652382,347.348669 C356.817253,347.348669 356.898903,347.635973 356.898903,348.21058 C356.87535,349.267167 355.897119,351.472969 353.96421,354.827986 C353.328281,355.914403 352.562026,356.927031 351.667015,357.86587 C350.770434,358.80157 349.957073,359.27099 349.226933,359.27099 C347.977058,359.27099 347.352121,358.077816 347.352121,355.691468 C347.352121,353.939386 347.692853,351.686485 348.377458,348.937474 C347.294024,351.686485 346.05514,354.072833 344.665518,356.099659 C343.274326,358.123345 341.884704,359.135973 340.493512,359.135973 C338.913896,359.135973 338.124089,357.746553 338.124089,354.966143 C338.124089,352.851399 338.477382,350.705256 339.18554,348.530853 C339.91568,346.354881 340.953579,344.511741 342.296095,343.003003 C343.640181,341.461297 345.089471,340.688874 346.645533,340.688874 C348.225149,340.688874 349.308583,341.354539 349.898976,342.6843 C350.558458,341.020137 351.230501,339.103208 351.913536,336.927235 C352.621693,334.749693 353.08019,333.346143 353.292166,332.710307 C353.527695,332.046212 353.692566,331.564232 353.788348,331.259659 C353.906112,330.958225 354.04586,330.670922 354.2123,330.399317 C354.469812,329.975427 354.776,329.719522 355.130864,329.628464 C355.509281,329.507577 356.098104,329.447918 356.898903,329.447918 C357.723255,329.416519 358.217866,329.385119 358.384307,329.35529" id="Shape" fill="#2194D2" mask="url(#mask-20)"></path>
                </g>
                <g id="Clipped">
                    <mask id="mask-22" fill="white">
                        <use xlink:href="#path-21"></use>
                    </mask>
                    <g id="SVGID_1_"></g>
                    <path d="M365.652737,343.63256 C365.652737,342.754949 365.322996,342.318498 364.663514,342.318498 C363.74181,342.318498 362.718043,343.043823 361.585933,344.494471 C360.455393,345.945119 359.890123,347.122594 359.890123,348.030034 C359.890123,348.634471 360.337629,348.935904 361.232639,348.935904 C362.12922,348.935904 363.060346,348.376997 364.026015,347.259181 C365.016808,346.141365 365.558525,344.932491 365.652737,343.63256 M369.40079,347.212082 C369.542108,347.212082 369.612767,347.513515 369.612767,348.117952 C369.612767,348.69256 369.424343,349.389625 369.049067,350.202867 C368.67222,351.020819 368.293803,351.790102 367.915387,352.516997 C367.562093,353.242321 367.078473,354.086962 366.466097,355.052491 C365.853721,356.01959 365.253907,356.790444 364.665084,357.366621 C363.17968,358.756041 361.683285,359.451536 360.174328,359.451536 C358.688924,359.451536 357.486156,358.966416 356.567592,357.999317 C355.647458,357.002389 355.188961,355.490512 355.188961,353.466826 C355.188961,350.384983 356.072981,347.529215 357.841019,344.901092 C359.609058,342.271399 361.670724,340.957338 364.027585,340.957338 C365.089037,340.957338 365.936942,341.31843 366.574441,342.043754 C367.208799,342.739249 367.527549,343.583891 367.527549,344.582389 C367.527549,346.273242 366.904181,347.632833 365.654307,348.66273 C364.404432,349.687918 362.93159,350.201297 361.23421,350.201297 C360.244987,350.201297 359.513276,350.036451 359.042218,349.705188 C358.594713,351.243754 358.370175,352.604915 358.370175,353.783959 C358.370175,356.322594 359.207089,357.591126 360.880916,357.591126 C361.871708,357.591126 362.884484,357.107577 363.922382,356.140478 C364.982263,355.143549 365.878844,354.041433 366.608985,352.83256 C367.362678,351.593857 368.212153,349.826075 369.15427,347.529215 C369.246911,347.31884 369.330132,347.212082 369.40079,347.212082" id="Shape" fill="#2194D2" mask="url(#mask-22)"></path>
                </g>
                <g id="Clipped">
                    <mask id="mask-24" fill="white">
                        <use xlink:href="#path-23"></use>
                    </mask>
                    <g id="SVGID_1_"></g>
                    <path d="M392.680492,349.887304 C391.809035,351.758703 391.006665,353.330239 390.276525,354.600341 C389.568367,355.839044 388.755006,356.925461 387.836443,357.8643 C386.917879,358.80157 386.080965,359.26942 385.325702,359.26942 C383.93451,359.26942 383.240484,358.242662 383.240484,356.187577 C383.240484,353.799659 383.983186,350.399113 385.467019,345.989078 C385.79676,344.871263 385.961631,344.10041 385.961631,343.678089 C385.961631,343.072082 385.748084,342.770648 385.325702,342.770648 C385.06662,342.770648 384.619114,342.968464 383.983186,343.360956 C383.345687,343.753447 382.733311,344.342184 382.144488,345.128737 C381.577648,345.91372 381.119151,346.639044 380.764287,347.30314 C380.409423,347.968805 380.023156,348.967304 379.597633,350.295495 C379.17368,351.625256 378.891045,352.559386 378.749728,353.105734 C378.066693,355.823345 377.606626,357.787372 377.371097,358.997816 L373.905678,358.997816 C375.132,354.64587 375.967343,351.714744 376.416419,350.202867 C376.889048,348.69256 377.170112,347.75529 377.264324,347.394198 L377.583073,346.124096 C377.842156,345.156997 377.970911,344.356314 377.970911,343.722048 C377.970911,343.089352 377.747944,342.770648 377.300438,342.770648 C376.922022,342.770648 376.403857,342.982594 375.744376,343.406485 C375.108447,343.828805 374.48351,344.447372 373.869564,345.263754 C373.257188,346.080137 372.739024,347.031536 372.316641,348.119522 C371.914672,349.177679 371.584931,350.099249 371.325849,350.884232 C371.09032,351.669215 370.840659,352.636314 370.581577,353.785529 C370.322495,354.903345 370.088536,355.824915 369.874989,356.550239 C369.688136,357.244164 369.485581,358.062116 369.273605,358.999386 L365.8443,358.999386 C366.103382,357.727713 366.386017,356.597338 366.692205,355.59884 L368.99097,348.075563 C369.933086,345.054949 370.405715,342.849147 370.405715,341.458157 C370.405715,341.156724 370.380592,340.960478 370.333486,340.86942 L371.81732,340.86942 C372.619689,340.86942 373.137853,340.973038 373.373382,341.186553 C373.608911,341.367099 373.726676,341.623003 373.726676,341.955836 C373.726676,342.288669 373.585359,343.057952 373.302724,344.268396 C375.37695,341.850648 377.451177,340.641775 379.525404,340.641775 C380.775279,340.641775 381.400216,341.30587 381.400216,342.637201 C381.400216,343.211809 381.26989,343.919863 381.010808,344.766075 C383.154123,342.015495 385.360246,340.641775 387.622896,340.641775 C388.847648,340.641775 389.461594,341.30587 389.461594,342.637201 C389.461594,343.241638 389.378374,343.814676 389.213503,344.359454 C389.050203,344.902662 388.836657,345.613857 388.577575,346.489898 C388.318492,347.336109 388.106516,348.044164 387.943216,348.618771 C387.778346,349.163549 387.586782,349.841775 387.376376,350.658157 C386.92887,352.320751 386.704333,353.559454 386.704333,354.374266 C386.704333,355.159249 386.894326,355.553311 387.269603,355.553311 C387.670002,355.553311 388.164613,355.220478 388.753436,354.554812 C389.343829,353.890717 389.780343,353.316109 390.062978,352.83256 C390.369166,352.34901 390.735022,351.669215 391.158974,350.791604 C391.606479,349.887304 391.981756,349.102321 392.289514,348.435085 C392.595702,347.77099 392.773134,347.438157 392.82024,347.438157 C392.961557,347.438157 393.032216,347.727031 393.032216,348.300068 C393.033786,348.844846 392.916022,349.373925 392.680492,349.887304" id="Shape" fill="#2194D2" mask="url(#mask-24)"></path>
                </g>
                <g id="Clipped">
                    <mask id="mask-26" fill="white">
                        <use xlink:href="#path-25"></use>
                    </mask>
                    <g id="SVGID_1_"></g>
                    <path d="M405.659719,341.32 L407.110579,341.32 C406.378868,341.894608 405.637737,343.315427 404.884043,345.580887 C404.268527,347.485256 403.750363,349.221638 403.327981,350.793174 C402.902458,352.333311 402.641806,353.27058 402.549164,353.603413 C402.453382,353.934676 402.231985,354.751058 401.877121,356.05099 C401.54738,357.321092 401.275737,358.302321 401.06376,358.996246 C400.473367,361.11256 399.790333,362.787713 399.013086,364.027986 C398.23427,365.266689 397.2686,366.247918 396.111367,366.973242 C394.957274,367.728396 393.78905,368.108328 392.611404,368.108328 C391.432188,368.108328 390.430404,367.805324 389.606052,367.200887 C388.756577,366.62785 388.332624,365.70628 388.332624,364.436177 C388.332624,363.770512 388.495924,363.166075 388.825665,362.624437 C389.133423,362.109488 389.497708,361.853584 389.921661,361.853584 C390.323631,361.853584 390.664363,361.974471 390.946998,362.216246 C391.231203,362.456451 391.430618,362.729625 391.548382,363.031058 C391.12286,363.213174 390.912454,363.84901 390.912454,364.935427 C390.912454,365.510034 391.066333,365.962184 391.372521,366.295017 C391.702261,366.657679 392.115222,366.838225 392.609834,366.838225 C394.51919,366.838225 396.122359,364.648123 397.417769,360.266348 L399.433898,353.377338 C398.325341,355.160819 397.361242,356.50314 396.533749,357.41058 C395.73295,358.288191 395.097022,358.81727 394.624393,358.996246 C394.176888,359.178362 393.635171,359.26942 392.999242,359.26942 C392.385296,359.26942 391.890685,358.952287 391.513838,358.31802 C391.136991,357.653925 390.948568,356.700956 390.948568,355.462253 C390.972121,354.19372 391.254756,352.397679 391.798043,350.06942 C392.361743,347.74273 392.975689,345.89959 393.636741,344.54 C394.319775,343.18198 395.015371,342.304369 395.721959,341.910307 C396.45367,341.517816 397.442892,341.32157 398.692767,341.32157 C398.786978,341.32157 398.834084,341.382799 398.834084,341.503686 C398.834084,341.624573 398.763425,341.77529 398.622108,341.955836 C397.654868,343.043823 396.665646,344.99215 395.64973,347.802389 C394.660508,350.612628 394.167467,352.986416 394.167467,354.919044 C394.167467,355.945802 394.390434,356.459181 394.83794,356.459181 C395.687415,356.459181 396.770849,355.372765 398.091382,353.196792 C399.411916,351.020819 400.423121,348.844846 401.132849,346.670444 C401.228631,346.36744 401.357387,345.92942 401.520687,345.354812 C401.70911,344.781775 401.839436,344.389283 401.910095,344.177338 C401.980754,343.965392 402.087527,343.678089 402.228844,343.315427 C402.393715,342.922935 402.535032,342.665461 402.652797,342.546143 C402.770562,342.393857 402.926011,342.213311 403.112864,342.001365 C403.32641,341.78785 403.538387,341.652833 403.748793,341.591604 C404.433397,341.412628 405.070896,341.32 405.659719,341.32" id="Shape" fill="#2194D2" mask="url(#mask-26)"></path>
                </g>
                <g id="Clipped">
                    <mask id="mask-28" fill="white">
                        <use xlink:href="#path-27"></use>
                    </mask>
                    <g id="SVGID_1_"></g>
                    <path d="M441.813445,336.380887 C441.813445,331.454334 440.092512,328.994198 436.653786,328.994198 C434.152467,328.994198 431.762631,330.094744 429.474857,332.300546 C427.212207,334.506348 425.420616,337.271058 424.101652,340.594676 C422.804672,343.919863 422.156181,347.243481 422.156181,350.567099 C422.156181,352.955017 422.569143,354.887645 423.393495,356.368123 C424.217847,357.848601 425.525819,358.589625 427.318981,358.589625 C429.134125,358.589625 430.94927,357.89413 432.764415,356.50471 C434.579559,355.11372 436.134052,353.345939 437.431032,351.201365 C438.728013,349.025392 439.776903,346.623345 440.579272,343.995222 C441.402054,341.3357 441.813445,338.797065 441.813445,336.380887 M443.298849,345.263754 C441.742786,349.797816 439.516251,353.468396 436.616102,356.278635 C433.741076,359.059044 430.46408,360.446894 426.786685,360.446894 C420.939281,360.446894 418.018719,357.140546 418.018719,350.52314 C418.018719,347.530785 418.500769,344.601229 419.468009,341.728191 C420.457231,338.828464 421.754212,336.303959 423.35738,334.159386 C424.960549,331.983413 426.857343,330.231331 429.049335,328.90157 C431.241326,327.571809 433.480423,326.907713 435.768197,326.907713 C438.760987,326.907713 441.000084,327.857543 442.485488,329.761911 C443.994445,331.634881 444.746568,333.991399 444.746568,336.831468 C444.748138,339.643276 444.267659,342.453515 443.298849,345.263754" id="Shape" fill="#2194D2" mask="url(#mask-28)"></path>
                </g>
                <g id="Clipped">
                    <mask id="mask-30" fill="white">
                        <use xlink:href="#path-29"></use>
                    </mask>
                    <g id="SVGID_1_"></g>
                    <path d="M447.494408,344.811604 C445.726369,349.13215 444.748138,351.292423 444.561285,351.292423 C444.443521,351.292423 444.383853,351.050648 444.383853,350.567099 C444.383853,350.05372 444.454512,349.6157 444.595829,349.253038 C445.751492,346.714403 446.624521,344.298225 447.213343,342.001365 C447.309125,341.608874 447.412758,341.351399 447.532093,341.230512 C447.649857,341.079795 447.849272,341.002867 448.131907,341.002867 L448.414542,341.002867 L451.526667,341.32 C451.667985,340.86628 451.903514,340.037338 452.233255,338.826894 C452.588119,337.61802 452.856622,336.69802 453.046616,336.062184 C453.236609,335.426348 453.520814,334.566007 453.896091,333.47802 C454.272937,332.391604 454.61524,331.529693 454.921428,330.893857 C455.227616,330.25802 455.628015,329.549966 456.122626,328.763413 C456.618808,327.948601 457.113419,327.328464 457.60803,326.906143 C458.810799,325.877816 460.10621,325.364437 461.497402,325.364437 C463.950045,325.364437 465.176367,326.527782 465.176367,328.856041 C465.176367,329.732082 464.975382,330.517065 464.573413,331.21256 C464.198136,331.906485 463.690963,332.255017 463.053464,332.255017 C462.748847,332.255017 462.475633,332.149829 462.240104,331.937884 C462.028127,331.725939 461.921354,331.484164 461.921354,331.21256 C461.921354,330.911126 462.098786,330.441706 462.45208,329.80587 C462.805374,329.141775 462.982806,328.584437 462.982806,328.130717 C462.982806,327.645597 462.828927,327.253106 462.522739,326.951672 C462.240104,326.650239 461.899371,326.499522 461.497402,326.499522 C460.792384,326.499522 460.084227,326.983072 459.376069,327.950171 C458.669482,328.9157 458.020991,330.185802 457.432168,331.757338 C456.39427,334.506348 455.463145,337.437474 454.640363,340.549147 C454.61524,340.701433 454.593257,340.806621 454.569704,340.86628 C454.497475,341.108055 454.439378,341.32 454.392272,341.502116 C458.116773,341.502116 460.238106,341.290171 460.75627,340.86628 C460.450082,341.833379 459.7906,342.469215 458.776255,342.770648 C457.761909,343.072082 456.135188,343.255768 453.897661,343.315427 L452.873894,347.122594 C451.410473,352.501297 450.279933,356.203276 449.479134,358.226962 C448.676765,360.222389 447.91208,361.944642 447.180369,363.39372 C446.473782,364.844369 445.767194,366.037543 445.057467,366.973242 C443.454298,369.150785 441.793032,370.237201 440.072099,370.237201 C438.918006,370.237201 438.068531,369.888669 437.526814,369.194744 C436.961544,368.500819 436.678909,367.715836 436.678909,366.836655 C436.678909,365.992014 436.831218,365.282389 437.137406,364.709352 C437.443594,364.134744 437.785896,363.84744 438.162743,363.84744 C438.53959,363.84744 438.823795,363.951058 439.012218,364.163003 C439.200641,364.404778 439.294853,364.648123 439.294853,364.889898 C439.294853,365.161502 439.177089,365.569693 438.941559,366.112901 C438.682477,366.685939 438.552151,367.169488 438.552151,367.56198 C438.552151,367.956041 438.633801,368.288874 438.800242,368.560478 C438.963542,368.833652 439.257168,368.968669 439.682691,368.968669 C440.108214,368.968669 440.613816,368.697065 441.20421,368.152287 C441.769479,367.638908 442.323758,366.882184 442.867045,365.886826 C444.894166,362.049829 447.569778,354.539113 450.892309,343.359386 L449.901516,343.359386 C448.698747,343.359386 447.896378,343.844505 447.494408,344.811604" id="Shape" fill="#2194D2" mask="url(#mask-30)"></path>
                </g>
                <g id="Clipped">
                    <mask id="mask-32" fill="white">
                        <use xlink:href="#path-31"></use>
                    </mask>
                    <g id="SVGID_1_"></g>
                    <path d="M499.599739,327.361433 L501.79173,327.361433 C500.730279,328.41959 499.12868,331.68198 496.983795,337.151741 C493.801011,345.368942 492.210404,351.276724 492.210404,354.873515 C492.210404,356.534539 492.621795,357.365051 493.447717,357.365051 C493.824564,357.365051 494.284631,357.168805 494.826348,356.776314 L494.862462,356.776314 C494.933121,356.776314 494.966095,356.851672 494.966095,357.003959 C494.966095,357.576997 494.364711,358.121775 493.165082,358.635154 C491.985866,359.148532 491.020197,359.406007 490.263363,359.406007 C488.683747,359.406007 487.89551,358.302321 487.89551,356.096519 C487.89551,352.261092 490.299477,344.508601 495.107413,332.845324 C494.165296,333.994539 493.527797,334.809352 493.198056,335.292901 C490.936976,338.527031 487.564199,343.875904 483.087575,351.339522 C482.143888,352.878089 481.495397,353.846758 481.143674,354.239249 C480.78881,354.633311 480.317752,354.829556 479.728929,354.829556 C479.165229,354.829556 478.504177,354.601911 477.748914,354.149761 C478.337737,353.182662 478.632933,350.251536 478.632933,345.354812 C478.632933,340.429829 478.397404,335.960137 477.924775,331.939454 C477.07687,333.96314 475.54279,338.465802 473.327246,345.44744 C471.113272,352.425939 470.004715,356.806143 470.004715,358.591195 C470.004715,358.80314 470.017276,358.938157 470.039259,358.999386 L466.785816,358.999386 C468.129903,354.586212 470.050251,348.769488 472.55157,341.549215 C475.049749,334.327372 476.569698,330.036655 477.109844,328.677065 C474.964959,328.677065 472.867179,329.223413 470.816505,330.308259 C468.789384,331.396246 467.599177,332.666348 467.247454,334.116997 C467.22233,334.208055 467.175225,334.252014 467.104566,334.252014 C466.916143,334.252014 466.821931,334.055768 466.821931,333.663276 C466.821931,333.603618 466.916143,333.195427 467.104566,332.440273 C467.292989,331.685119 467.647853,330.900137 468.166017,330.083754 C468.709305,329.265802 469.332672,328.664505 470.039259,328.270444 C471.193352,327.666007 472.622229,327.364573 474.319609,327.364573 L478.807225,327.364573 C479.515382,327.364573 480.071231,327.51529 480.471631,327.818294 C480.895583,328.119727 481.19078,328.845051 481.35408,329.992696 C481.51895,331.112082 481.671259,333.724505 481.812577,337.834676 C481.979017,341.915017 482.060667,344.783345 482.060667,346.445939 C482.060667,348.108532 482.037114,349.240478 481.990009,349.844915 C485.359646,344.436382 489.721646,337.65099 495.072868,329.495017 C496.016555,328.071058 497.523942,327.361433 499.599739,327.361433" id="Shape" fill="#2194D2" mask="url(#mask-32)"></path>
                </g>
                <g id="Clipped">
                    <mask id="mask-34" fill="white">
                        <use xlink:href="#path-33"></use>
                    </mask>
                    <g id="SVGID_1_"></g>
                    <path d="M509.846827,340.731263 L511.544207,340.776792 C511.899071,340.776792 512.122039,340.761092 512.216251,340.731263 C511.555199,341.30587 510.602091,343.315427 509.353786,346.759932 C508.127464,350.173038 507.513518,352.636314 507.513518,354.146621 C507.513518,355.054061 507.749048,355.506212 508.220106,355.506212 C508.526294,355.506212 508.939255,355.250307 509.457419,354.736928 C510.002276,354.22198 510.460773,353.663072 510.83762,353.060205 C511.214467,352.425939 511.614866,351.655085 512.040389,350.747645 C512.487894,349.841775 512.864741,349.055222 513.172499,348.391126 C513.50224,347.725461 513.690663,347.394198 513.737769,347.394198 C513.879086,347.394198 513.949745,347.681502 513.949745,348.254539 C513.949745,348.829147 513.820989,349.372355 513.560337,349.887304 C510.638205,356.142048 508.198123,359.26942 506.241661,359.26942 C504.921127,359.26942 504.261646,358.015017 504.261646,355.507782 C504.261646,354.722799 504.308752,353.967645 504.402963,353.242321 C502.187419,357.263003 500.077078,359.27099 498.07351,359.27099 C497.484687,359.27099 497.001067,358.953857 496.62422,358.31959 C496.270927,357.685324 496.093495,356.748055 496.093495,355.509352 C496.093495,354.270648 496.435797,352.231263 497.118832,349.391195 C497.803436,346.522867 498.64035,344.163208 499.629572,342.320068 C499.865102,341.867918 500.113192,341.596314 500.372274,341.505256 C500.656479,341.384369 501.174644,341.32314 501.928337,341.32314 L503.625717,341.32314 C503.035324,342.351468 502.399395,343.740887 501.716361,345.492969 C500.160298,349.632969 499.383052,352.669283 499.383052,354.603481 C499.383052,355.751126 499.700231,356.325734 500.33773,356.325734 C500.997212,356.325734 501.774458,355.525051 502.669469,353.925256 C503.564479,352.322321 504.520728,350.254676 505.533503,347.716041 C506.569832,345.147577 507.171216,343.695358 507.336086,343.364096 C508.209114,341.607304 509.046028,340.731263 509.846827,340.731263" id="Shape" fill="#2194D2" mask="url(#mask-34)"></path>
                </g>
                <g id="Clipped">
                    <mask id="mask-36" fill="white">
                        <use xlink:href="#path-35"></use>
                    </mask>
                    <g id="SVGID_1_"></g>
                    <path d="M526.968227,349.796246 C525.200188,353.573584 523.59859,356.201706 522.160292,357.682184 C520.721994,359.162662 518.858173,359.903686 516.57197,359.903686 C515.251436,359.903686 514.142879,359.586553 513.247868,358.952287 C512.354428,358.286621 511.905352,357.319522 511.905352,356.05099 C511.905352,355.325666 512.068652,354.66157 512.401533,354.057133 C512.731274,353.451126 513.17721,353.149693 513.742479,353.149693 C514.332873,353.149693 514.709719,353.422867 514.87459,353.966075 C514.427084,354.540683 514.202546,355.204778 514.202546,355.961502 C514.202546,357.471809 514.862028,358.226962 516.182562,358.226962 C516.959808,358.226962 517.631851,357.87843 518.198691,357.184505 C518.787514,356.49058 519.08114,355.733857 519.08114,354.919044 C519.08114,354.072833 518.938253,353.331809 518.655618,352.699113 C518.372983,352.063276 518.032251,351.504369 517.630281,351.020819 C517.229881,350.53884 516.829482,350.05529 516.429082,349.571741 C515.461842,348.392696 514.978222,347.048805 514.978222,345.536928 C514.978222,343.998362 515.427298,342.71256 516.322309,341.684232 C517.242443,340.627645 518.490747,340.098567 520.070363,340.098567 C521.061156,340.098567 521.896499,340.326212 522.581104,340.779932 C523.265708,341.232082 523.606441,341.941706 523.606441,342.908805 C523.606441,343.844505 523.380333,344.660887 522.934397,345.357952 C522.486892,346.050307 521.871376,346.39884 521.09413,346.39884 C520.342006,346.39884 519.962019,345.946689 519.962019,345.040819 C519.962019,344.827304 520.233663,344.511741 520.77695,344.08785 C521.320238,343.665529 521.590311,343.227509 521.590311,342.773788 C521.590311,342.321638 521.438002,341.988805 521.131814,341.77686 C520.847609,341.535085 520.436218,341.414198 519.892931,341.414198 C519.351214,341.414198 518.820488,341.655973 518.302324,342.139522 C517.807713,342.624642 517.558052,343.257338 517.558052,344.043891 C517.558052,344.828874 517.817134,345.571468 518.336868,346.263823 C518.855032,346.959317 519.420302,347.548055 520.034248,348.031604 C520.648194,348.516724 521.211894,349.194949 521.730058,350.07256 C522.249793,350.918771 522.508875,351.823072 522.508875,352.790171 C522.508875,353.72744 522.331443,354.573652 521.978149,355.328805 C521.648408,356.083959 521.248009,356.688396 520.77538,357.142116 C522.095914,356.416792 523.496527,354.603481 524.983501,351.702184 C525.124819,351.46198 525.372909,350.96116 525.726203,350.207577 C526.550555,348.303208 527.010622,347.351809 527.104834,347.351809 C527.246151,347.351809 527.31838,347.639113 527.31838,348.21372 C527.323091,348.755358 527.205326,349.284437 526.968227,349.796246" id="Shape" fill="#2194D2" mask="url(#mask-36)"></path>
                </g>
                <g id="Clipped">
                    <mask id="mask-38" fill="white">
                        <use xlink:href="#path-37"></use>
                    </mask>
                    <g id="SVGID_1_"></g>
                    <path d="M530.997346,340.86785 L532.763814,340.913379 L533.120248,340.913379 C532.741832,341.274471 532.236229,342.2557 531.59873,343.858635 C530.984784,345.46 530.524717,346.668874 530.220099,347.485256 C529.913911,348.301638 529.559048,349.403754 529.158648,350.793174 C528.781801,352.182594 528.593378,353.314539 528.593378,354.19215 C528.593378,355.068191 528.817916,355.506212 529.265421,355.506212 C529.571609,355.506212 529.997132,355.250307 530.538849,354.736928 C531.104119,354.19215 531.564186,353.633242 531.917479,353.060205 C532.272343,352.455768 532.660181,351.700614 533.084134,350.794744 C533.531639,349.888874 533.910056,349.102321 534.217814,348.438225 C534.547555,347.77099 534.735978,347.439727 534.781514,347.439727 C534.922832,347.439727 534.99349,347.728601 534.99349,348.301638 C534.99349,348.846416 534.877296,349.375495 534.640197,349.888874 C533.767168,351.760273 532.96794,353.331809 532.236229,354.601911 C531.529641,355.840614 530.714711,356.927031 529.796147,357.86587 C528.876013,358.80157 528.039099,359.27099 527.285406,359.27099 C525.963302,359.27099 525.303821,358.091945 525.303821,355.735427 C525.303821,352.078976 526.282052,348.030034 528.238514,343.590171 C529.064436,341.77372 529.983,340.86785 530.997346,340.86785 M535.803711,334.88471 L535.662393,334.88471 C535.191335,334.88471 534.731268,335.142184 534.283762,335.655563 C533.85824,336.168942 533.552052,336.69802 533.363629,337.242799 C532.749683,336.941365 532.445065,336.396587 532.445065,335.611604 C532.445065,334.825051 532.7277,334.040068 533.29454,333.255085 C533.85824,332.437133 534.401527,332.030512 534.919691,332.030512 C535.436285,332.030512 535.827263,332.181229 536.086346,332.484232 C536.345428,332.784096 536.475754,333.178157 536.475754,333.661706 C536.477324,334.113857 536.254356,334.522048 535.803711,334.88471" id="Shape" fill="#2194D2" mask="url(#mask-38)"></path>
                </g>
                <g id="Clipped">
                    <mask id="mask-40" fill="white">
                        <use xlink:href="#path-39"></use>
                    </mask>
                    <g id="SVGID_1_"></g>
                    <path d="M547.431,347.394198 C547.572317,347.394198 547.644546,347.681502 547.644546,348.256109 C547.644546,348.829147 547.445132,349.538771 547.041592,350.383413 C546.666315,351.229625 546.358557,351.87959 546.123028,352.333311 C545.911052,352.757201 545.534205,353.451126 544.990918,354.418225 C544.449201,355.385324 543.978143,356.079249 543.577743,356.50314 C543.175773,356.925461 542.671741,357.42471 542.056225,357.997747 C541.019896,358.964846 539.666389,359.448396 537.990991,359.448396 C536.340717,359.448396 535.137948,358.919317 534.384255,357.86273 C533.654114,356.774744 533.288259,355.369625 533.288259,353.645802 C533.288259,350.472901 534.159717,347.571604 535.904203,344.943481 C537.672242,342.285529 539.746469,340.955768 542.126883,340.955768 C543.188335,340.955768 544.03624,341.31686 544.673739,342.042184 C545.309667,342.736109 545.628417,343.582321 545.628417,344.580819 C545.628417,345.546348 545.416441,346.39256 544.990918,347.117884 C544.566965,347.844778 544.083346,348.20587 543.541629,348.20587 C542.481747,348.20587 541.951022,347.648532 541.951022,346.527577 C541.951022,346.168055 542.244648,345.819522 542.833471,345.486689 C543.069,345.367372 543.280976,345.138157 543.4694,344.805324 C543.657823,344.474061 543.752035,344.036041 543.752035,343.491263 C543.752035,342.70628 543.422294,342.313788 542.762812,342.313788 C541.348067,342.313788 539.945883,343.62785 538.554691,346.255973 C537.161929,348.885666 536.467903,351.44 536.467903,353.915836 C536.467903,356.364983 537.304816,357.589556 538.978644,357.589556 C541.311952,357.589556 543.588734,355.275427 545.802708,350.655017 C546.250214,349.747577 546.617639,348.976724 546.898704,348.340887 C547.206462,347.711331 547.383894,347.394198 547.431,347.394198" id="Shape" fill="#2194D2" mask="url(#mask-40)"></path>
                </g>
                <g id="Clipped">
                    <mask id="mask-42" fill="white">
                        <use xlink:href="#path-41"></use>
                    </mask>
                    <g id="SVGID_1_"></g>
                    <path d="M300.255711,227.538294 C300.453555,225.783072 299.291611,223.608669 297.185981,222.107782 C294.469544,220.175154 291.214531,220.091945 289.906559,221.925666 C288.604868,223.757816 289.74797,226.806689 292.459695,228.739317 C295.176132,230.670375 298.432715,230.753584 299.737546,228.921433 L299.739117,228.921433 L316.918613,223.787645 C317.895274,231.714403 308.6484,235.848123 308.6484,235.848123 C307.084486,237.507577 308.389317,237.82 308.389317,237.82 C308.902771,236.764983 309.496305,236.642526 309.496305,236.642526 C324.632978,231.595085 320.796994,221.859727 320.796994,221.859727 L300.255711,227.538294 L300.255711,227.538294 Z M404.434968,242.446689 C393.960201,227.902526 384.802827,235.273515 384.802827,235.273515 L397.763212,255.392628 C395.8146,255.76942 393.8707,257.739727 392.966268,260.499727 C391.801184,264.05727 392.802968,267.575563 395.206935,268.360546 C397.607762,269.147099 400.49535,266.903618 401.658864,263.349215 C402.822378,259.788532 401.822164,256.271809 399.422907,255.486826 L399.418197,255.486826 L388.166184,238.785529 C396.340616,235.088259 403.864987,243.617884 403.864987,243.617884 C406.168462,244.74041 406.064829,243.236382 406.064829,243.236382 C404.767849,243.038567 404.434968,242.446689 404.434968,242.446689 L404.434968,242.446689 Z M276.228596,125.926962 L259.644203,161.496109 C257.420808,159.123891 252.985009,158.152082 248.363927,159.310717 C242.41132,160.805324 238.405754,165.273447 239.412248,169.29099 C240.423454,173.308532 246.066732,175.352628 252.017769,173.856451 C257.971946,172.360273 261.979082,167.89372 260.969447,163.877747 L260.967877,163.874608 L274.297257,133.668464 C286.580888,141.769488 281.320737,159.665529 281.320737,159.665529 C281.777663,163.841638 283.77338,162.38471 283.77338,162.38471 C282.911343,160.408123 283.443639,159.431604 283.443639,159.431604 C294.461693,132.180137 276.228596,125.926962 276.228596,125.926962 L276.228596,125.926962 Z M403.469298,145.118225 L402.404706,166.399113 C400.801538,165.662799 398.370877,166.0757 396.282518,167.606416 C393.592775,169.576724 392.492069,172.642867 393.823594,174.454608 C395.153549,176.267918 398.408562,176.142321 401.095164,174.172014 C403.786477,172.206416 404.888754,169.138703 403.557229,167.323823 L403.555659,167.323823 L404.086384,149.405802 C411.915374,150.969488 412.93286,161.047099 412.93286,161.047099 C414.014724,163.053515 414.722881,161.91372 414.722881,161.91372 C413.882827,161.097338 413.951916,160.492901 413.951916,160.492901 C413.917371,144.535768 403.469298,145.118225 403.469298,145.118225 L403.469298,145.118225 Z M366.847654,170.617611 C363.17654,161.596587 357.396654,164.322048 357.396654,164.322048 L361.672294,176.600751 C360.596711,176.548942 359.318572,177.343345 358.48951,178.685666 C357.420207,180.415768 357.497147,182.401775 358.668512,183.122389 C359.833596,183.841433 361.6456,183.025051 362.714903,181.298089 C363.785775,179.567986 363.705695,177.58198 362.537471,176.859795 L358.726609,166.607918 C363.515702,165.698908 366.401719,171.163959 366.401719,171.163959 C367.474162,172.04942 367.610769,171.244027 367.610769,171.244027 C366.946577,170.970853 366.847654,170.617611 366.847654,170.617611 L366.847654,170.617611 Z M350.354333,137.0957 L341.28332,156.376451 C340.078981,155.082799 337.673443,154.54744 335.162702,155.167577 C331.928102,155.968259 329.742391,158.386007 330.284108,160.568259 C330.825825,162.748942 333.882994,163.873038 337.119164,163.070785 C340.355335,162.271672 342.541045,159.852355 341.999328,157.670102 L341.999328,157.668532 L349.291311,141.292218 C355.941084,145.716382 353.055067,155.423481 353.055067,155.423481 C353.295307,157.690512 354.381881,156.903959 354.381881,156.903959 C353.915533,155.830102 354.206019,155.296314 354.206019,155.296314 C360.240276,140.526075 350.354333,137.0957 350.354333,137.0957 L350.354333,137.0957 Z M427.468149,107.255358 C425.847708,105.109215 426.205713,103.768464 426.205713,103.768464 C431.643296,67.527372 407.715104,65.2430717 407.715104,65.2430717 L397.957916,113.194539 C394.569436,110.965188 388.907315,111.075085 383.642454,113.825666 C376.859214,117.369078 373.299583,123.950375 375.692559,128.528396 C378.083965,133.103276 385.521976,133.941638 392.300505,130.399795 C399.082175,126.854812 402.643376,120.270375 400.25354,115.695495 L400.2504,115.692355 L407.625603,75.1935154 C424.869477,81.4435495 423.699683,104.674334 423.699683,104.674334 C425.470862,109.602457 427.468149,107.255358 427.468149,107.255358 L427.468149,107.255358 Z M462.13176,216.837406 C468.312045,191.005188 451.173374,187.868396 451.173374,187.868396 L441.142972,221.889556 C438.834786,220.068396 434.74286,219.796792 430.767127,221.453106 C425.651434,223.589829 422.669635,228.123891 424.112644,231.576246 C425.557222,235.031741 430.875471,236.097747 435.991164,233.962594 C441.108428,231.8243 444.090227,227.291809 442.645648,223.837884 L442.644078,223.836314 L450.488769,195.04785 C462.557283,200.635358 460.266369,217.338225 460.266369,217.338225 C461.23832,221.004096 462.822646,219.43727 462.822646,219.43727 C461.791028,217.784096 462.13176,216.837406 462.13176,216.837406 L462.13176,216.837406 Z M378.69006,87.6464846 C380.790981,86.845802 381.530542,83.6697611 380.343475,80.5596587 C379.153268,77.4479863 376.485508,75.5734471 374.386158,76.3772696 L374.384587,76.3788396 L357.239635,71.1351536 C360.816538,63.9965188 370.804544,65.6763823 370.804544,65.6763823 C373.024799,65.1614334 372.112516,64.1786348 372.112516,64.1786348 C371.099741,64.768942 370.539181,64.5475768 370.539181,64.5475768 C355.138715,60.3620478 352.940443,70.5919454 352.940443,70.5919454 L373.188099,77.2423208 C372.051279,78.5924915 371.811039,81.0463481 372.734313,83.4625256 C373.92138,86.5773379 376.58914,88.4487372 378.69006,87.6464846 L378.69006,87.6464846 Z" id="Shape" fill="#B2D235" mask="url(#mask-42)"></path>
                </g>
                <g id="Clipped">
                    <mask id="mask-44" fill="white">
                        <use xlink:href="#path-43"></use>
                    </mask>
                    <g id="SVGID_1_"></g>
                    <path d="M329.093901,249.395358 L324.557609,258.95802 C323.927961,258.254676 322.769158,257.882594 321.522423,258.07413 C319.788929,258.337884 318.542194,259.596997 318.743179,260.884369 C318.939454,262.170171 320.503367,262.994403 322.238432,262.732218 C323.83689,262.487304 325.019246,261.397747 325.038089,260.220273 L330.010894,249.668532 L339.600071,252.52744 L335.110886,262.053993 C334.518922,261.28942 333.349127,260.865529 332.091402,261.057065 C330.412864,261.316109 329.211665,262.572082 329.40951,263.862594 C329.605784,265.157816 331.130443,265.994608 332.808981,265.740273 C334.222156,265.522048 335.294598,264.597338 335.484592,263.542321 L335.492443,263.545461 L340.462108,252.781775 L340.465248,252.784915 L341.997758,249.345119 L330.692359,245.955563 L329.093901,249.395358 L329.093901,249.395358 Z M405.772773,213.136997 L402.403136,221.947645 C401.793901,221.362048 400.73716,221.110853 399.644305,221.365188 C398.122786,221.72 397.10216,222.925734 397.365952,224.056109 C397.631315,225.183345 399.080605,225.811331 400.600553,225.456519 C402.005877,225.128396 402.980968,224.082799 402.91973,223.037201 L406.608117,213.317543 L415.324266,215.198362 L411.993883,223.972901 C411.414482,223.332355 410.343609,223.037201 409.239762,223.294676 C407.76692,223.640068 406.783978,224.841092 407.049341,225.973038 C407.316274,227.109693 408.724739,227.750239 410.200721,227.406416 C411.441175,227.117543 412.329905,226.222662 412.425687,225.271263 L412.430397,225.272833 L416.106222,215.366348 L416.107793,215.366348 L417.235192,212.209147 L406.95827,209.973515 L405.772773,213.136997 L405.772773,213.136997 Z M274.168501,206.613788 L274.174782,206.605939 L261.650911,194.390034 L261.655622,194.386894 L257.628073,190.560887 L247.34016,204.607372 L251.337875,208.527577 L262.403035,219.545597 C261.112335,220.071536 260.02105,221.498635 259.674037,223.327645 C259.188847,225.87099 260.322527,228.221229 262.209901,228.580751 C264.097274,228.940273 266.020762,227.170922 266.505952,224.629147 C266.948747,222.286758 266.022333,220.106075 264.395611,219.496928 L252.168508,207.383072 L260.872095,195.459181 L271.913702,206.400273 C270.553914,206.844573 269.388829,208.260683 269.038676,210.106962 C268.569188,212.570239 269.726421,214.859249 271.620076,215.218771 C273.51687,215.581433 275.435648,213.87959 275.905136,211.414744 C276.302395,209.343959 275.545562,207.394061 274.168501,206.613788 L274.168501,206.613788 Z M351.012244,103.656997 L351.031086,103.642867 L325.843598,71.0519454 L325.851449,71.0456655 L317.719413,60.8032082 L289.123032,90.1741297 L297.151436,100.623823 L319.336713,129.949215 C316.16335,130.749898 313.148577,133.720273 311.736972,137.869693 C309.771089,143.639317 311.649041,149.49529 315.927821,150.950648 C320.2066,152.407577 325.270477,148.914403 327.23322,143.144778 C329.043654,137.832014 327.589654,132.448601 324.004901,130.493993 L299.472184,98.2343345 L323.67673,73.2860068 L345.832173,102.415154 C342.514352,103.007031 339.334708,105.928737 337.908972,110.117406 C336.009037,115.706485 337.952937,121.42587 342.25213,122.890648 C346.556032,124.353857 351.588505,121.009829 353.488441,115.422321 C355.093179,110.723413 353.96735,105.931877 351.012244,103.656997 L351.012244,103.656997 Z M474.475058,152.806348 L474.49076,152.796928 L460.121911,126.350853 L460.128192,126.347713 L455.455294,118.009625 L431.399916,135.864846 L435.978603,144.339522 L448.56057,168.078976 C446.177015,168.289352 443.655283,170.080683 442.155747,172.909761 C440.065819,176.840956 440.737862,181.282389 443.653713,182.833515 C446.572704,184.384642 450.633227,182.452014 452.720015,178.519249 C454.643503,174.898908 454.225832,170.843686 451.8674,169.016246 L437.925644,142.885734 L458.294205,127.712014 L470.884024,151.305461 C468.425099,151.34471 465.791883,153.085802 464.270365,155.93686 C462.247955,159.748737 462.982806,164.100683 465.915929,165.659659 C468.847482,167.217065 472.868749,165.389625 474.8943,161.580887 C476.593251,158.378157 476.34359,154.789215 474.475058,152.806348 L474.475058,152.806348 Z M417.484853,178.366962 L412.912447,186.182253 C412.427257,185.536997 411.467868,185.130375 410.392285,185.202594 C408.89432,185.299932 407.738657,186.27802 407.810886,187.389556 C407.881544,188.502662 409.156542,189.323754 410.654508,189.223276 C412.036279,189.133788 413.122853,188.293857 413.231197,187.293788 L418.247968,178.668396 L426.207283,181.814608 L421.674132,189.604778 C421.228197,188.907713 420.262527,188.458703 419.174382,188.530922 C417.723523,188.629829 416.607114,189.609488 416.679343,190.725734 C416.751572,191.84198 417.987315,192.670922 419.439745,192.575154 C420.659786,192.495085 421.644298,191.787031 421.884538,190.90157 L421.890819,190.90314 L426.924862,182.095631 L428.487205,179.280683 L419.106864,175.553584 L417.484853,178.366962 L417.484853,178.366962 Z M384.457384,189.216997 L381.926231,193.535973 C381.664009,193.17959 381.131713,192.955085 380.533469,192.994334 C379.707546,193.049283 379.068477,193.590922 379.109302,194.203208 C379.148557,194.820205 379.855145,195.273925 380.682637,195.218976 C381.444181,195.168737 382.047136,194.702457 382.105233,194.149829 L384.881337,189.381843 L389.282592,191.121365 L386.776562,195.426212 C386.528471,195.04314 385.996175,194.795085 385.39479,194.835904 C384.592421,194.886143 383.975335,195.429352 384.01616,196.049488 C384.053844,196.663345 384.74159,197.121775 385.543959,197.069966 C386.216002,197.026007 386.76086,196.633515 386.892756,196.145256 L386.894326,196.146826 L389.67514,191.278362 L389.676711,191.278362 L390.541888,189.722526 L385.353965,187.66116 L384.457384,189.216997 L384.457384,189.216997 Z M327.154711,197.038567 C327.858158,197.652423 329.097041,197.377679 329.922963,196.43099 C330.684508,195.558089 330.824255,194.418294 330.295099,193.765188 L328.129801,185.693993 L334.696354,182.819386 L336.651246,190.110307 C335.972922,189.9643 335.137579,190.275154 334.540905,190.961229 C333.738536,191.879659 333.664737,193.121502 334.371324,193.738498 C335.077911,194.352355 336.299523,194.10587 337.098752,193.18901 C337.772365,192.418157 337.929384,191.416519 337.544687,190.749283 L337.550968,190.749283 L335.286747,182.563481 L335.288317,182.561911 L334.534624,179.971468 L326.784145,183.348464 L327.498583,185.970307 L329.448765,193.297338 C328.775151,193.20157 327.971212,193.535973 327.376108,194.217338 C326.550186,195.164027 326.451263,196.42471 327.154711,197.038567 L327.154711,197.038567 Z M375.281168,147.429215 L384.66622,144.750853 L385.975762,154.941502 C385.085462,154.619659 383.903106,154.886553 382.97041,155.704505 C381.723676,156.798771 381.393935,158.462935 382.235559,159.422184 C383.077184,160.383003 384.769853,160.269966 386.018158,159.17727 C387.065477,158.25884 387.462737,156.933788 387.063907,155.968259 L387.070188,155.968259 L385.506274,144.509078 L385.510985,144.509078 L384.966127,140.877747 L373.893117,144.020819 L374.381447,147.688259 L375.672147,157.929147 C374.788127,157.681092 373.637175,157.976246 372.71076,158.791058 C371.426341,159.921433 371.060486,161.607577 371.8974,162.562116 C372.734313,163.516655 374.458387,163.375358 375.742806,162.246553 C376.925162,161.207235 377.328702,159.693788 376.732028,158.7157 L375.281168,147.429215 L375.281168,147.429215 Z M312.487525,188.623549 L310.163637,171.58314 L310.166778,171.58157 L309.361268,166.184027 L292.89621,170.851536 L293.620069,176.310307 L295.537276,191.540546 C294.223024,191.168464 292.509942,191.614334 291.136022,192.824778 C289.225095,194.503072 288.680238,197.013447 289.925402,198.429556 C291.172136,199.850375 293.731553,199.64 295.64405,197.963276 C297.405808,196.41529 298.004052,194.163959 297.113752,192.710171 L294.956305,175.925666 L308.912192,171.944232 L310.857663,187.097543 C309.535559,186.621843 307.776942,187.017474 306.385749,188.234198 C304.53292,189.862253 304.04773,192.333379 305.297605,193.760478 C306.55062,195.187577 309.066071,195.02273 310.922041,193.399386 C312.478104,192.031945 313.071637,190.064778 312.476533,188.625119 L312.487525,188.623549 L312.487525,188.623549 L312.487525,188.623549 Z" id="Shape" fill="#046737" mask="url(#mask-44)"></path>
                </g>
                <g id="Clipped">
                    <mask id="mask-46" fill="white">
                        <use xlink:href="#path-45"></use>
                    </mask>
                    <g id="SVGID_1_"></g>
                    <polygon id="Shape" fill="#A1CA3A" mask="url(#mask-46)" points="243.766397 393.273311 256.762896 393.273311 256.762896 391.163276 246.12954 391.163276 246.12954 385.266485 255.803508 385.266485 255.803508 383.156451 246.12954 383.156451 246.12954 377.785597 256.607447 377.785597 256.607447 375.615904 243.766397 375.615904"></polygon>
                </g>
                <g id="Clipped">
                    <mask id="mask-48" fill="white">
                        <use xlink:href="#path-47"></use>
                    </mask>
                    <g id="SVGID_1_"></g>
                    <polygon id="Shape" fill="#A1CA3A" mask="url(#mask-48)" points="258.24987 380.4357 262.949462 393.273311 265.251367 393.273311 270.144093 380.4357 267.782521 380.4357 264.101985 390.959181 260.732348 380.4357"></polygon>
                </g>
                <g id="Clipped">
                    <mask id="mask-50" fill="white">
                        <use xlink:href="#path-49"></use>
                    </mask>
                    <g id="SVGID_1_"></g>
                    <path d="M273.59538,385.828532 C273.59538,385.206826 273.760251,384.586689 274.086851,383.971263 C274.39932,383.396655 274.834263,382.920956 275.393253,382.544164 C275.898855,382.184642 276.493959,382.004096 277.180134,382.004096 C278.379762,382.004096 279.268492,382.363618 279.841613,383.082662 C280.121108,383.426485 280.350356,383.847235 280.526218,384.343345 C280.669106,384.797065 280.741335,385.294744 280.741335,385.828532 L273.59538,385.828532 M271.293475,387.232082 C271.293475,388.869556 271.693875,390.260546 272.493104,391.401911 C273.019119,392.120956 273.659758,392.681433 274.411881,393.078635 C275.178136,393.472696 276.052734,393.665802 277.037246,393.665802 C277.988784,393.665802 278.706363,393.584164 279.196263,393.414608 C279.354853,393.367509 279.579391,393.27959 279.866737,393.152423 L279.986071,393.103754 C280.282838,392.960887 280.469691,392.85413 280.549771,392.780341 C281.284622,392.309352 281.83262,391.700205 282.192194,390.959181 C282.551769,390.257406 282.771596,389.684369 282.853246,389.243208 L280.647123,389.243208 C280.647123,389.524232 280.507376,389.874334 280.224741,390.301365 C279.931114,390.739386 279.530715,391.092628 279.028253,391.354812 C278.499097,391.634266 277.936968,391.775563 277.337153,391.775563 C276.106121,391.775563 275.178136,391.416041 274.554769,390.695427 C273.9157,389.976382 273.59538,388.937065 273.59538,387.579044 L283.007125,387.579044 C283.007125,385.660546 282.671104,384.023072 282.000631,382.663481 C281.721136,382.104573 281.317596,381.595904 280.790011,381.142184 C280.285978,380.716724 279.747402,380.39802 279.17114,380.182935 C278.635704,379.991399 278.064153,379.894061 277.456488,379.894061 L277.384259,379.894061 C276.569328,379.894061 275.814065,380.052628 275.118469,380.363481 C274.367916,380.707304 273.716285,381.162594 273.165147,381.727782 C272.557482,382.351058 272.097415,383.137611 271.786516,384.09215 C271.601233,384.618089 271.478758,385.125188 271.41438,385.613447 C271.3343,386.189625 271.293475,386.728123 271.293475,387.232082" id="Shape" fill="#A1CA3A" mask="url(#mask-50)"></path>
                </g>
                <g id="Clipped">
                    <mask id="mask-52" fill="white">
                        <use xlink:href="#path-51"></use>
                    </mask>
                    <g id="SVGID_1_"></g>
                    <path d="M285.87273,393.273311 L288.031747,393.273311 L288.031747,385.586758 C288.031747,384.605529 288.414875,383.826826 289.18113,383.250648 C289.941104,382.683891 290.916194,382.401297 292.107972,382.401297 L292.155078,382.401297 L292.155078,380.135836 C291.04495,380.135836 290.184484,380.343072 289.578389,380.757543 C288.984855,381.148464 288.439998,381.768601 287.935965,382.616382 L287.935965,380.4357 L285.87273,380.4357 L285.87273,393.273311" id="Shape" fill="#A1CA3A" mask="url(#mask-52)"></path>
                </g>
                <g id="Clipped">
                    <mask id="mask-54" fill="white">
                        <use xlink:href="#path-53"></use>
                    </mask>
                    <g id="SVGID_1_"></g>
                    <path d="M292.393747,380.4357 L297.189121,393.668942 L296.325514,395.708328 C296.166924,396.019181 295.986352,396.246826 295.788508,396.389693 C295.570251,396.51843 295.268773,396.582799 294.876225,396.582799 C294.373762,396.582799 293.94824,396.51843 293.604367,396.389693 L293.604367,398.35529 C294.094268,398.484027 294.395745,398.548396 294.51665,398.548396 C295.282905,398.548396 295.863877,398.502867 296.254855,398.403959 C296.61443,398.308191 296.958302,398.096246 297.284903,397.768123 C297.58167,397.472969 297.886287,396.97372 298.197186,396.271945 C298.55676,395.535631 299.004266,394.457065 299.539702,393.034676 C299.770521,392.444369 300.09084,391.609147 300.499091,390.52901 L300.846104,389.61843 C300.941886,389.354676 301.089484,388.943345 301.290469,388.384437 C301.730123,387.152014 302.088127,386.167645 302.370762,385.423481 C302.761741,384.376314 303.348994,382.71372 304.132521,380.43727 L301.805492,380.43727 L298.341644,390.915222 L294.829119,380.43727 L292.393747,380.43727" id="Shape" fill="#A1CA3A" mask="url(#mask-54)"></path>
                </g>
                <g id="Clipped">
                    <mask id="mask-56" fill="white">
                        <use xlink:href="#path-55"></use>
                    </mask>
                    <g id="SVGID_1_"></g>
                    <path d="M312.273978,384.307235 L312.295961,384.583549 C312.295961,385.220956 312.346207,385.830102 312.441989,386.40471 C312.536201,386.977747 312.69322,387.583754 312.908337,388.213311 C313.236508,389.324846 313.720127,390.282526 314.359197,391.091058 C315.03124,391.93727 315.874434,392.591945 316.89035,393.056655 C317.918827,393.529215 319.107464,393.76314 320.449981,393.76314 C321.153428,393.76314 321.800348,393.679932 322.392311,393.511945 C323.064354,393.31256 323.651607,393.077065 324.154069,392.805461 C325.250065,392.197884 326.124663,391.372082 326.779434,390.323345 C327.435775,389.277747 327.839315,388.098703 327.990054,386.789352 L325.630052,386.789352 C325.397663,388.307509 324.833963,389.492833 323.938952,390.348464 C323.004687,391.219795 321.761093,391.654676 320.211311,391.654676 L320.102968,391.703345 C319.774797,391.703345 319.430924,391.662526 319.07135,391.584027 C318.678801,391.486689 318.352201,391.379932 318.086838,391.260614 C317.480743,390.963891 316.917043,390.51959 316.397309,389.929283 C315.894847,389.288737 315.502298,388.514744 315.222803,387.604164 C314.943309,386.668464 314.803562,385.571058 314.803562,384.307235 C314.803562,383.012014 314.982564,381.902048 315.343708,380.974198 C315.718985,379.991399 316.249711,379.204846 316.937456,378.612969 C317.625201,378.003823 318.42757,377.612901 319.347704,377.438635 L320.007186,377.364846 L320.69022,377.317747 C321.905551,377.317747 322.940309,377.620751 323.796065,378.229898 C324.665952,378.835904 325.229652,379.744915 325.485594,380.949078 L327.789069,380.949078 C327.55668,379.47802 327.032235,378.308396 326.217305,377.438635 C325.3694,376.535904 324.430423,375.928328 323.398806,375.615904 C322.392311,375.312901 321.399948,375.160614 320.426428,375.160614 L320.354199,375.160614 C319.451337,375.160614 318.615994,375.279932 317.848168,375.520137 C317.015965,375.81686 316.314089,376.174812 315.737827,376.600273 C314.524067,377.473174 313.649469,378.56273 313.112462,379.872082 C312.553473,381.183003 312.273978,382.575563 312.273978,384.045051 L312.273978,384.307235" id="Shape" fill="#A1CA3A" mask="url(#mask-56)"></path>
                </g>
                <g id="Clipped">
                    <mask id="mask-58" fill="white">
                        <use xlink:href="#path-57"></use>
                    </mask>
                    <g id="SVGID_1_"></g>
                    <path d="M330.557322,393.273311 L332.714769,393.273311 L332.714769,386.272833 C332.714769,384.786075 333.068063,383.707509 333.76994,383.035563 C334.457685,382.347918 335.30873,382.005666 336.323076,382.005666 C337.276184,382.005666 337.938806,382.24116 338.314082,382.71372 C338.673657,383.16744 338.852659,383.892765 338.852659,384.884983 L338.852659,393.274881 L341.022667,393.274881 L341.022667,384.56 C341.022667,383.415495 340.7997,382.517474 340.352194,381.862799 C339.91254,381.190853 339.356691,380.729283 338.686218,380.482799 C338.062851,380.217474 337.343702,380.087167 336.527201,380.087167 C335.760946,380.087167 335.176834,380.171945 334.776434,380.338362 C334.368184,380.501638 334.049434,380.696314 333.817045,380.927099 L332.714769,382.148532 L332.714769,375.615904 L330.557322,375.615904 L330.557322,393.273311" id="Shape" fill="#A1CA3A" mask="url(#mask-58)"></path>
                </g>
                <g id="Clipped">
                    <mask id="mask-60" fill="white">
                        <use xlink:href="#path-59"></use>
                    </mask>
                    <g id="SVGID_1_"></g>
                    <path d="M344.224294,378.12157 L346.430417,378.12157 L346.430417,375.675563 L344.224294,375.675563 L344.224294,378.12157 L344.224294,378.12157 Z M344.224294,393.273311 L346.430417,393.273311 L346.430417,380.482799 L344.224294,380.482799 L344.224294,393.273311 L344.224294,393.273311 Z" id="Shape" fill="#A1CA3A" mask="url(#mask-60)"></path>
                </g>
                <g id="Clipped">
                    <mask id="mask-62" fill="white">
                        <use xlink:href="#path-61"></use>
                    </mask>
                    <g id="SVGID_1_"></g>
                    <rect id="Rectangle-path" fill="#A1CA3A" mask="url(#mask-62)" x="349.738816" y="375.615904" width="2.15901728" height="17.6574061"></rect>
                </g>
                <g id="Clipped">
                    <mask id="mask-64" fill="white">
                        <use xlink:href="#path-63"></use>
                    </mask>
                    <g id="SVGID_1_"></g>
                    <path d="M356.658663,386.834881 C356.658663,385.508259 356.884771,384.382594 357.341698,383.454744 C357.812756,382.487645 358.756443,382.005666 360.171188,382.005666 C362.496646,382.005666 363.66016,383.831536 363.66016,387.481706 C363.66016,389.001433 363.291164,390.0957 362.557883,390.767645 C361.790058,391.43959 360.978268,391.775563 360.122512,391.775563 C358.996683,391.775563 358.137786,391.315563 357.544253,390.397133 C356.95386,389.477133 356.658663,388.290239 356.658663,386.834881 M354.45254,386.476928 C354.45254,387.690512 354.631542,388.825597 354.991117,389.882184 C355.334989,390.974881 355.931663,391.879181 356.777998,392.590375 C357.647886,393.30942 358.747022,393.670512 360.075406,393.670512 L360.758441,393.598294 C361.070909,393.551195 361.405361,393.450717 361.766505,393.3 C362.141782,393.155563 362.517058,392.929488 362.893905,392.615495 C363.284883,392.304642 363.587931,391.93413 363.803048,391.513379 L363.803048,393.274881 L365.817607,393.274881 L365.817607,375.617474 L363.611484,375.617474 L363.611484,382.24587 C363.187531,381.610034 362.703911,381.093515 362.160624,380.701024 C361.601635,380.291263 360.805546,380.090307 359.775499,380.090307 C358.663801,380.090307 357.716974,380.360341 356.935017,380.905119 C356.118516,381.481297 355.503,382.24587 355.086898,383.206689 C354.664516,384.203618 354.45254,385.294744 354.45254,386.476928" id="Shape" fill="#A1CA3A" mask="url(#mask-64)"></path>
                </g>
                <g id="Clipped">
                    <mask id="mask-66" fill="white">
                        <use xlink:href="#path-65"></use>
                    </mask>
                    <g id="SVGID_1_"></g>
                    <path d="M375.095886,384.307235 L375.122579,384.583549 C375.122579,385.220956 375.171255,385.830102 375.265467,386.40471 C375.361248,386.977747 375.518268,387.583754 375.733384,388.213311 C376.059985,389.324846 376.545175,390.282526 377.184244,391.091058 C377.856287,391.93727 378.699482,392.591945 379.713827,393.056655 C380.745445,393.529215 381.932512,393.76314 383.276598,393.76314 C383.978475,393.76314 384.626965,393.679932 385.217359,393.511945 C385.887832,393.31256 386.475084,393.077065 386.979117,392.805461 C388.075112,392.197884 388.949711,391.372082 389.604482,390.323345 C390.260823,389.277747 390.664363,388.098703 390.815102,386.789352 L388.455099,386.789352 C388.222711,388.307509 387.657441,389.492833 386.764,390.348464 C385.828164,391.219795 384.58457,391.654676 383.036359,391.654676 L382.926445,391.703345 C382.599844,391.703345 382.255972,391.662526 381.896397,391.584027 C381.503849,391.486689 381.177248,391.379932 380.913456,391.260614 C380.30422,390.963891 379.742091,390.51959 379.222356,389.929283 C378.719894,389.288737 378.328916,388.514744 378.049421,387.604164 C377.768356,386.668464 377.628609,385.571058 377.628609,384.307235 C377.628609,383.012014 377.807611,381.902048 378.167186,380.974198 C378.542462,379.991399 379.074758,379.204846 379.764073,378.612969 C380.451819,378.003823 381.254188,377.612901 382.174322,377.438635 L382.833803,377.364846 L383.515268,377.317747 C384.732168,377.317747 385.766927,377.620751 386.622683,378.229898 C387.49257,378.835904 388.0547,379.744915 388.310641,380.949078 L390.614117,380.949078 C390.383298,379.47802 389.857283,378.308396 389.043922,377.438635 C388.196017,376.535904 387.255471,375.928328 386.223853,375.615904 C385.217359,375.312901 384.228136,375.160614 383.251475,375.160614 L383.179246,375.160614 C382.276384,375.160614 381.439471,375.279932 380.673216,375.520137 C379.842583,375.81686 379.137566,376.174812 378.561305,376.600273 C377.349114,377.473174 376.471376,378.56273 375.93594,379.872082 C375.378521,381.183003 375.095886,382.575563 375.095886,384.045051 L375.095886,384.307235" id="Shape" fill="#A1CA3A" mask="url(#mask-66)"></path>
                </g>
                <g id="Clipped">
                    <mask id="mask-68" fill="white">
                        <use xlink:href="#path-67"></use>
                    </mask>
                    <g id="SVGID_1_"></g>
                    <path d="M394.92587,390.012491 C394.92587,389.309147 395.183382,388.775358 395.695266,388.406416 C396.197728,388.046894 396.916877,387.77215 397.851143,387.580614 L400.082389,387.137884 C400.691624,387.026416 401.06533,386.87727 401.209788,386.693584 L401.209788,389.009283 C401.209788,389.59959 400.996242,390.106689 400.57543,390.53058 C400.149907,390.970171 399.627032,391.299863 399.005235,391.514949 C398.293937,391.786553 397.701974,391.92314 397.229346,391.92314 L397.194801,391.92314 C395.817741,391.92 395.064048,391.281024 394.92587,390.012491 M392.625536,390.06116 C392.625536,390.637338 392.812389,391.205666 393.189235,391.775563 C393.564512,392.36744 394.062263,392.82587 394.685631,393.153993 C395.310568,393.496246 395.996743,393.667372 396.747296,393.667372 C397.683132,393.667372 398.535747,393.488396 399.300432,393.130444 C400.083959,392.753652 400.773274,392.246553 401.363667,391.606007 C401.363667,392.879249 402.026289,393.513515 403.354674,393.513515 L403.379797,393.513515 C404.065972,393.513515 404.53703,393.431877 404.792972,393.273311 L404.792972,391.701775 L403.989032,391.822662 C403.740942,391.789693 403.577641,391.693925 403.497562,391.533788 C403.419052,391.373652 403.379797,391.119317 403.379797,390.767645 L403.379797,383.454744 C403.379797,382.672901 403.147408,382.026075 402.682631,381.514266 C402.227274,381.010307 401.608618,380.642935 400.825091,380.41058 C400.08867,380.195495 399.280019,380.088737 398.389719,380.088737 C397.296864,380.088737 396.359458,380.281843 395.586922,380.675904 C394.803395,381.080956 394.231844,381.614744 393.8707,382.27099 C393.496994,382.941365 393.30857,383.64157 393.30857,384.368464 L395.32313,384.368464 C395.32313,383.537952 395.580641,382.903686 396.101946,382.475085 C396.604408,382.066894 397.334549,381.861229 398.293937,381.861229 C400.267672,381.861229 401.255324,382.606962 401.255324,384.09372 C401.255324,384.56314 401.120287,384.914812 400.847073,385.147167 C400.567579,385.377952 400.223706,385.536519 399.817026,385.615017 C399.721244,385.630717 399.521829,385.652696 399.217212,385.687235 C398.906313,385.734334 398.598555,385.759454 398.293937,385.759454 L397.130423,385.830102 C396.004594,386.013788 395.112724,386.294812 394.457952,386.668464 C393.818883,387.045256 393.371378,387.505256 393.117006,388.048464 C392.988251,388.329488 392.879907,388.623072 392.793546,388.935495 C392.711896,389.224369 392.672641,389.513242 392.672641,389.811536 L392.625536,390.06116" id="Shape" fill="#A1CA3A" mask="url(#mask-68)"></path>
                </g>
                <g id="Clipped">
                    <mask id="mask-70" fill="white">
                        <use xlink:href="#path-69"></use>
                    </mask>
                    <g id="SVGID_1_"></g>
                    <path d="M407.047771,393.273311 L409.205218,393.273311 L409.205218,385.93686 C409.205218,385.202116 409.354387,384.530171 409.648013,383.924164 C409.94321,383.332287 410.381294,382.856587 410.955985,382.495495 C411.532246,382.168942 412.150903,382.005666 412.813525,382.005666 C413.780765,382.005666 414.444957,382.300819 414.806102,382.892696 C415.165676,383.501843 415.344678,384.307235 415.344678,385.313584 L415.344678,393.273311 L417.514687,393.273311 L417.514687,384.55843 C417.514687,383.62116 417.343536,382.812628 416.999663,382.124983 C416.625957,381.437338 416.117214,380.928669 415.476575,380.602116 C414.821803,380.258294 414.033566,380.085597 413.116572,380.085597 C412.364449,380.085597 411.701827,380.234744 411.123996,380.528328 C410.502199,380.87215 410.043702,381.200273 409.745365,381.512696 C409.401492,381.856519 409.189516,382.120273 409.112577,382.303959 L409.112577,380.4357 L407.049341,380.4357 L407.049341,393.273311" id="Shape" fill="#A1CA3A" mask="url(#mask-70)"></path>
                </g>
                <g id="Clipped">
                    <mask id="mask-72" fill="white">
                        <use xlink:href="#path-71"></use>
                    </mask>
                    <g id="SVGID_1_"></g>
                    <polygon id="Shape" fill="#A1CA3A" mask="url(#mask-72)" points="427.824583 393.273311 439.144114 393.273311 439.144114 391.163276 430.176734 391.163276 430.176734 375.615904 427.824583 375.615904"></polygon>
                </g>
                <g id="Clipped">
                    <mask id="mask-74" fill="white">
                        <use xlink:href="#path-73"></use>
                    </mask>
                    <g id="SVGID_1_"></g>
                    <path d="M442.884317,385.828532 C442.884317,385.206826 443.047618,384.586689 443.374218,383.971263 C443.686687,383.396655 444.123201,382.920956 444.68062,382.544164 C445.186222,382.184642 445.781326,382.004096 446.469071,382.004096 C447.6687,382.004096 448.554289,382.363618 449.128981,383.082662 C449.410045,383.426485 449.637724,383.847235 449.815156,384.343345 C449.958043,384.797065 450.030272,385.294744 450.030272,385.828532 L442.884317,385.828532 M440.582413,387.232082 C440.582413,388.869556 440.982812,390.260546 441.782041,391.401911 C442.308056,392.120956 442.948695,392.681433 443.700819,393.078635 C444.467073,393.472696 445.341672,393.665802 446.326184,393.665802 C447.276151,393.665802 447.9953,393.584164 448.483631,393.414608 C448.645361,393.367509 448.868328,393.27959 449.157244,393.152423 L449.276579,393.103754 C449.571775,392.960887 449.760199,392.85413 449.838708,392.780341 C450.573559,392.309352 451.121557,391.700205 451.481132,390.959181 C451.840706,390.257406 452.060533,389.684369 452.139043,389.243208 L449.937631,389.243208 C449.937631,389.524232 449.793173,389.874334 449.513678,390.301365 C449.220052,390.739386 448.821222,391.092628 448.31719,391.354812 C447.788035,391.634266 447.224335,391.775563 446.626091,391.775563 C445.395058,391.775563 444.467073,391.416041 443.845276,390.695427 C443.206207,389.976382 442.885888,388.937065 442.885888,387.579044 L452.297633,387.579044 C452.297633,385.660546 451.961611,384.023072 451.289568,382.663481 C451.010073,382.104573 450.606533,381.595904 450.078948,381.142184 C449.574916,380.716724 449.034769,380.39802 448.460078,380.182935 C447.924641,379.991399 447.353091,379.894061 446.745425,379.894061 L446.673197,379.894061 C445.856695,379.894061 445.101432,380.052628 444.407406,380.363481 C443.655283,380.707304 443.005222,381.162594 442.454084,381.727782 C441.846419,382.351058 441.386352,383.137611 441.075454,384.09215 C440.890171,384.618089 440.769266,385.125188 440.704888,385.613447 C440.621667,386.189625 440.582413,386.728123 440.582413,387.232082" id="Shape" fill="#A1CA3A" mask="url(#mask-74)"></path>
                </g>
                <g id="Clipped">
                    <mask id="mask-76" fill="white">
                        <use xlink:href="#path-75"></use>
                    </mask>
                    <g id="SVGID_1_"></g>
                    <path d="M456.406832,390.012491 C456.406832,389.309147 456.664343,388.775358 457.174657,388.406416 C457.678689,388.046894 458.397838,387.77215 459.333674,387.580614 L461.56335,387.137884 C462.169445,387.026416 462.546292,386.87727 462.689179,386.693584 L462.689179,389.009283 C462.689179,389.59959 462.477203,390.106689 462.056391,390.53058 C461.632438,390.970171 461.107994,391.299863 460.484626,391.514949 C459.774898,391.786553 459.182935,391.92314 458.710307,391.92314 L458.675762,391.92314 C457.298702,391.92 456.543438,391.281024 456.406832,390.012491 M454.104927,390.06116 C454.104927,390.637338 454.29335,391.205666 454.670197,391.775563 C455.043903,392.36744 455.544795,392.82587 456.168162,393.153993 C456.789959,393.496246 457.477704,393.667372 458.228257,393.667372 C459.164093,393.667372 460.015138,393.488396 460.781393,393.130444 C461.56649,392.753652 462.254235,392.246553 462.844629,391.606007 C462.844629,392.879249 463.507251,393.513515 464.835635,393.513515 L464.857618,393.513515 C465.545363,393.513515 466.017991,393.431877 466.272363,393.273311 L466.272363,391.701775 L465.469994,391.822662 C465.221903,391.789693 465.057032,391.693925 464.978523,391.533788 C464.900013,391.373652 464.857618,391.119317 464.857618,390.767645 L464.857618,383.454744 C464.857618,382.672901 464.628369,382.026075 464.165162,381.514266 C463.709806,381.010307 463.088009,380.642935 462.304482,380.41058 C461.569631,380.195495 460.75941,380.088737 459.872251,380.088737 C458.776255,380.088737 457.841989,380.281843 457.064743,380.675904 C456.282786,381.080956 455.712806,381.614744 455.351661,382.27099 C454.976384,382.941365 454.787961,383.64157 454.787961,384.368464 L456.802521,384.368464 C456.802521,383.537952 457.061603,382.903686 457.581337,382.475085 C458.085369,382.066894 458.81551,381.861229 459.774898,381.861229 C461.748633,381.861229 462.736285,382.606962 462.736285,384.09372 C462.736285,384.56314 462.601248,384.914812 462.329605,385.147167 C462.04854,385.377952 461.706238,385.536519 461.297987,385.615017 C461.200635,385.630717 461.00122,385.652696 460.698173,385.687235 C460.387274,385.734334 460.077946,385.759454 459.774898,385.759454 L458.611384,385.830102 C457.483985,386.013788 456.595255,386.294812 455.938914,386.668464 C455.298274,387.045256 454.850769,387.505256 454.597968,388.048464 C454.469212,388.329488 454.362438,388.623072 454.272937,388.935495 C454.192857,389.224369 454.153603,389.513242 454.153603,389.811536 L454.104927,390.06116" id="Shape" fill="#A1CA3A" mask="url(#mask-76)"></path>
                </g>
                <g id="Clipped">
                    <mask id="mask-78" fill="white">
                        <use xlink:href="#path-77"></use>
                    </mask>
                    <g id="SVGID_1_"></g>
                    <path d="M468.828639,393.273311 L470.987657,393.273311 L470.987657,385.586758 C470.987657,384.605529 471.369214,383.826826 472.135469,383.250648 C472.895443,382.683891 473.872104,382.401297 475.062311,382.401297 L475.110987,382.401297 L475.110987,380.135836 C473.997719,380.135836 473.138823,380.343072 472.531158,380.757543 C471.940765,381.148464 471.392767,381.768601 470.888734,382.616382 L470.888734,380.4357 L468.827069,380.4357 L468.827069,393.273311" id="Shape" fill="#A1CA3A" mask="url(#mask-78)"></path>
                </g>
                <g id="Clipped">
                    <mask id="mask-80" fill="white">
                        <use xlink:href="#path-79"></use>
                    </mask>
                    <g id="SVGID_1_"></g>
                    <path d="M476.681181,393.273311 L478.840199,393.273311 L478.840199,385.93686 C478.840199,385.202116 478.989367,384.530171 479.284564,383.924164 C479.57819,383.332287 480.014704,382.856587 480.589395,382.495495 C481.165657,382.168942 481.784313,382.005666 482.446935,382.005666 C483.414175,382.005666 484.079937,382.300819 484.439512,382.892696 C484.799086,383.501843 484.979659,384.307235 484.979659,385.313584 L484.979659,393.273311 L487.151238,393.273311 L487.151238,384.55843 C487.151238,383.62116 486.980086,382.812628 486.634644,382.124983 C486.260937,381.437338 485.752194,380.928669 485.111555,380.602116 C484.455214,380.258294 483.670117,380.085597 482.749983,380.085597 C481.99786,380.085597 481.335238,380.234744 480.758976,380.528328 C480.135609,380.87215 479.677112,381.200273 479.378775,381.512696 C479.034903,381.856519 478.822927,382.120273 478.745987,382.303959 L478.745987,380.4357 L476.682752,380.4357 L476.682752,393.273311" id="Shape" fill="#A1CA3A" mask="url(#mask-80)"></path>
                </g>
                <g id="Clipped">
                    <mask id="mask-82" fill="white">
                        <use xlink:href="#path-81"></use>
                    </mask>
                    <g id="SVGID_1_"></g>
                    <path d="M386.707473,306.929898 C379.925803,299.428601 377.14813,289.170444 374.417562,279.632901 C371.360393,268.958703 369.71797,259.342662 370.647525,248.027918 C372.396721,226.751741 387.220927,207.46157 405.733518,197.418498 C405.733518,197.418498 387.767354,200.194198 369.350544,220.621024 C368.840231,219.726143 368.213724,218.927031 367.493004,218.255085 C369.713259,216.356997 371.131145,213.471399 371.131145,210.23727 C371.131145,204.522594 366.706337,199.889625 361.245201,199.889625 C355.784065,199.889625 351.359257,204.522594 351.359257,210.23727 C351.359257,213.799522 353.08019,216.941024 355.697704,218.803003 C355.066486,219.495358 354.523199,220.291331 354.088255,221.170512 C339.122732,199.517543 321.082769,201.125188 321.082769,201.125188 C375.274888,232.640683 343.111026,294.578976 335.756235,307.243891 C296.447989,312.069966 270.726635,325.763208 270.726635,325.763208 C380.089104,300.281092 453.307268,325.763208 453.307268,325.763208 C430.088803,314.930444 407.561225,309.272287 386.707473,306.929898" id="Shape" fill="#646567" mask="url(#mask-82)"></path>
                </g>
            </g>
        </g>
        <g id="Artboard-1"></g>
    </g>
</svg>